<svg width="66" height="68" fill="none" xmlns="http://www.w3.org/2000/svg"><path d="M18 28h.033M33 28h.033M48 28h.033m-31.7 25v7.785c0 1.776 0 2.664.364 3.12.317.397.797.628 1.305.627.583 0 1.277-.555 2.664-1.665l7.951-6.36c1.625-1.3 2.437-1.95 3.341-2.412a10 10 0 0 1 2.54-.89C35.491 53 36.531 53 38.611 53H47c5.6 0 8.4 0 10.54-1.09a10.001 10.001 0 0 0 4.37-4.37C63 45.4 63 42.6 63 37V19c0-5.6 0-8.4-1.09-10.54a10 10 0 0 0-4.37-4.37C55.4 3 52.6 3 47 3H19c-5.6 0-8.4 0-10.54 1.09a10 10 0 0 0-4.37 4.37C3 10.6 3 13.4 3 19v20.667c0 3.1 0 4.65.34 5.921a10 10 0 0 0 7.072 7.071c1.271.341 2.821.341 5.921.341Zm3.334-25a1.667 1.667 0 1 1-3.334 0 1.667 1.667 0 0 1 3.334 0Zm15 0a1.667 1.667 0 1 1-3.334 0 1.667 1.667 0 0 1 3.334 0Zm15 0a1.667 1.667 0 1 1-3.334 0 1.667 1.667 0 0 1 3.334 0Z" stroke="#D2D2D2" stroke-width="6" stroke-linecap="round" stroke-linejoin="round"/></svg>