<svg width="24" height="24" fill="none" xmlns="http://www.w3.org/2000/svg"><circle cx="12" cy="12" r="12" fill="#fff"/><path fill-rule="evenodd" clip-rule="evenodd" d="M15.88 9.626c-.139-1.255-1.23-1.661-2.601-1.763l-.024-1.743-1.062.014.024 1.698a42.48 42.48 0 0 0-.848.023l-.023-1.71-1.06.015.023 1.743c-.23.008-.455.015-.675.019v-.006l-1.464.02.016 1.133s.783-.026.77-.011c.43-.006.574.242.617.457L9.6 11.5c.03 0 .069 0 .112.006l-.111.001.037 2.783c-.017.136-.094.352-.394.357.014.012-.771.01-.771.01l-.194 1.27 1.381-.018.464-.003.294-.001.025 1.763 1.06-.014-.024-1.745c.291.002.573.001.848-.003l.023 1.737 1.062-.015-.024-1.76c1.783-.127 3.026-.593 3.157-2.27.107-1.351-.535-1.945-1.552-2.174.611-.323.989-.88.886-1.798Zm-1.435 3.791c.017 1.21-1.884 1.209-2.753 1.208l-.207.001-.031-2.336c.072-.001.16-.004.26-.008.89-.033 2.714-.101 2.731 1.135Zm-2.83-2.197c.725.002 2.306.007 2.291-1.092-.015-1.124-1.535-1.063-2.278-1.033a8.93 8.93 0 0 1-.218.007l.03 2.119h.174Z" fill="#221A2E"/></svg>