<svg width="60" height="60" fill="none" xmlns="http://www.w3.org/2000/svg"><path d="M27.5 45a2.5 2.5 0 0 0 5 0V15a2.5 2.5 0 0 0-5 0v30Zm-25-30A2.5 2.5 0 0 0 0 17.5v25a2.5 2.5 0 0 0 5 0v-25A2.5 2.5 0 0 0 2.5 15Zm21.25 25V20a2.5 2.5 0 0 0-5 0v20a2.5 2.5 0 0 0 5 0ZM12.5 37.5A2.5 2.5 0 0 0 15 35V25a2.5 2.5 0 0 0-5 0v10a2.5 2.5 0 0 0 2.5 2.5ZM41.25 40V20a2.5 2.5 0 0 0-5 0v20a2.5 2.5 0 0 0 5 0ZM57.5 15a2.5 2.5 0 0 0-2.5 2.5v25a2.5 2.5 0 0 0 5 0v-25a2.5 2.5 0 0 0-2.5-2.5Zm-10 7.5A2.5 2.5 0 0 0 45 25v10a2.5 2.5 0 0 0 5 0V25a2.5 2.5 0 0 0-2.5-2.5Zm-20 35a2.5 2.5 0 0 0 5 0V55a2.5 2.5 0 0 0-5 0v2.5Zm2.5-50A2.5 2.5 0 0 0 32.5 5V2.5a2.5 2.5 0 0 0-5 0V5A2.5 2.5 0 0 0 30 7.5Z" fill="#EE1282"/></svg>