<svg width="60" height="60" fill="none" xmlns="http://www.w3.org/2000/svg"><path d="M58.242 4.922H1.758C.787 4.922 0 5.709 0 6.68v46.575c0 .971.787 1.758 1.758 1.758h56.484c.971 0 1.758-.787 1.758-1.758V6.68c0-.971-.787-1.758-1.758-1.758ZM18.933 48.437v3.06h-5.898v-3.06h5.898Zm3.516 0h5.898v3.06H22.45v-3.06Zm9.414 0h5.898v3.06h-5.898v-3.06Zm9.414 0h5.898v3.06h-5.898v-3.06ZM3.516 44.92V15.014h52.968V44.92H3.516Zm37.761-33.423v-3.06h5.898v3.06h-5.898Zm-3.516 0h-5.898v-3.06h5.898v3.06Zm-9.414 0H22.45v-3.06h5.898v3.06Zm-9.414 0h-5.898v-3.06h5.898v3.06Zm37.551 0h-5.793v-3.06h5.793v3.06ZM9.52 8.438v3.06H3.516v-3.06h6.003ZM3.516 48.437h6.003v3.06H3.516v-3.06Zm47.175 3.06v-3.06h5.793v3.06h-5.793Z" fill="#EE1282"/><path d="M36.501 28.157a1.698 1.698 0 0 0-.149-.097l-10.058-5.871a2.49 2.49 0 0 0-2.474-.13 2.255 2.255 0 0 0-1.256 2.008v11.802c0 .844.481 1.613 1.256 2.008a2.48 2.48 0 0 0 1.125.268c.474 0 .947-.134 1.35-.398l10.057-5.87a2.226 2.226 0 0 0 1.085-1.908c0-.719-.341-1.38-.936-1.812ZM26.08 33.8v-7.667l6.568 3.834L26.08 33.8Z" fill="#EE1282"/></svg>