<svg width="18" height="18" fill="none" xmlns="http://www.w3.org/2000/svg"><path d="M9 1h2.036a4 4 0 0 1 2.828 1.172l1.964 1.964A4 4 0 0 1 17 6.965v4.071a4 4 0 0 1-1.172 2.828l-1.964 1.964A4 4 0 0 1 11.035 17h-4.07a4 4 0 0 1-2.829-1.172l-1.964-1.964A4 4 0 0 1 1 11.035v-4.07a4 4 0 0 1 1.172-2.829l1.964-1.964A4 4 0 0 1 6.965 1H9Z" stroke="#220150" stroke-width="1.3" stroke-linecap="round" stroke-linejoin="round"/><path d="M7.403 6.809c0-1 .825-1.809 1.842-1.809 1.017 0 1.841.81 1.841 1.809 0 .497-.204.948-.535 1.275-.569.562-1.306 1.181-1.306 1.98m0 2.641v.23" stroke="#220150" stroke-width="1.3" stroke-linecap="round" stroke-linejoin="round"/></svg>