<svg width="60" height="60" fill="none" xmlns="http://www.w3.org/2000/svg"><path d="m59.213 20.168-4.636-3.392a1.92 1.92 0 1 0-2.267 3.1l3.85 2.815v33.47H3.84V22.69l4.683-3.425a1.92 1.92 0 0 0-2.268-3.1L.786 20.169A1.92 1.92 0 0 0 0 21.718V58.08C0 59.14.86 60 1.92 60h56.16c1.059 0 1.919-.86 1.92-1.92V21.717a1.919 1.919 0 0 0-.787-1.55Z" fill="#EE1282"/><path d="M54.003 25.454a1.917 1.917 0 0 0-2.675-.471L30 39.918 8.67 24.983a1.918 1.918 0 0 0-2.674.47 1.918 1.918 0 0 0 .472 2.674l22.431 15.707a1.914 1.914 0 0 0 2.203 0l22.43-15.707a1.92 1.92 0 0 0 .471-2.673Zm-.546 26.08L40.956 41.268a1.922 1.922 0 0 0-2.703.265c-.672.82-.554 2.03.265 2.703l12.503 10.268a1.916 1.916 0 0 0 2.702-.265 1.92 1.92 0 0 0-.266-2.703Zm-34.41-10.267L6.544 51.535a1.92 1.92 0 0 0 2.437 2.968l12.502-10.268a1.92 1.92 0 0 0-2.438-2.968Z" fill="#EE1282"/><path d="M46.372 13.323c-1.769-.367-3.667-.107-5.247 1.342-.868.817-1.72 2.328-1.236 5.015-1.759.001-3.76.43-4.93 2.087-.677.966-1.204 2.563-.309 4.938-1.758.357-3.406 1.332-4.264 3.28a1.92 1.92 0 0 0 3.515 1.547c.627-1.418 2.74-1.177 3.38-1.069.26.105.506.115.76.108a1.92 1.92 0 0 0 1.854-1.975 1.91 1.91 0 0 0-.535-1.27c-.747-.895-1.636-2.812-1.26-3.35.44-.622 2.676-.517 3.804-.221.126.049.261.086.406.113a1.935 1.935 0 0 0 1.769-.598 1.924 1.924 0 0 0 .426-1.819 1.98 1.98 0 0 0-.26-.57c-.495-1.05-.912-3.023-.508-3.402 1.186-1.085 3.137.052 3.592.344.17.153.368.267.602.356a1.917 1.917 0 0 0 2.137-.535c.171-.197.3-.428.38-.677.114-.36.159-.811-.04-1.28-.282-1.02-.364-3.127.26-3.513.696-.42 2.709.504 3.64 1.213.08.076.167.148.264.215a1.92 1.92 0 0 0 3.018-1.392c.016-.182.01-.35-.013-.506-.018-1.077.4-3.161 1.073-3.409a1.92 1.92 0 0 0-1.324-3.603c-1.595.586-2.7 2.029-3.237 4.204-1.625-.68-3.675-1.07-5.437.01-1.372.85-2.157 2.388-2.28 4.417ZM2.322 9.842c.68.237 1.14 2.324 1.143 3.401a1.981 1.981 0 0 0 .374 1.442 1.92 1.92 0 0 0 2.635.415c.1-.07.194-.15.282-.235.916-.726 2.922-1.696 3.618-1.287.635.379.597 2.485.337 3.51a1.841 1.841 0 0 0-.005 1.318 1.925 1.925 0 0 0 2.472 1.152c.267-.099.483-.229.66-.396.47-.318 2.36-1.468 3.555-.41.429.387.048 2.375-.428 3.432a1.96 1.96 0 0 0-.24.553 1.923 1.923 0 0 0 .456 1.828 1.913 1.913 0 0 0 1.8.557 2.25 2.25 0 0 0 .402-.121c1.128-.31 3.338-.452 3.784.156.377.52-.4 2.339-1.294 3.494a1.92 1.92 0 1 0 3.026 2.364c.385-.494 3.703-4.915 1.368-8.125-1.198-1.631-3.21-2.03-4.967-1.992.434-2.7-.45-4.198-1.348-5.01-1.6-1.413-3.495-1.64-5.252-1.24-.161-2.021-.975-3.543-2.368-4.373-1.78-1.05-3.81-.629-5.436.089-.581-2.146-1.728-3.598-3.31-4.149A1.92 1.92 0 0 0 2.32 9.841Zm21.622-.555c.284.062.547.081.82.017.63-.015 2.769.037 3.14 1.431.128.502-1.358 2.06-2.423 2.708a1.92 1.92 0 0 0 .127 3.516l.07.026c.656.304 2.422 1.413 2.769 2.56.082.27.127.66-.265 1.268a1.92 1.92 0 0 0 1.612 2.96c.63 0 1.249-.31 1.612-.881 1.471-2.283 1.191-4.816-.765-6.949a13.431 13.431 0 0 0-1.024-.946c2.179-2.167 2.31-4.01 2.002-5.23-.538-2.012-1.98-3.201-3.658-3.803 1.238-2.193.967-3.837.45-4.89a1.924 1.924 0 0 0-2.57-.878 1.92 1.92 0 0 0-.876 2.57c.275.56-.859 2.283-1.736 3.077-.395.258-.65.646-.76 1.163a1.92 1.92 0 0 0 1.475 2.281Zm-5.579 3.823c.69 0 1.352-.272 1.84-.759.48-.489.76-1.155.76-1.84a2.65 2.65 0 0 0-.76-1.843c-.966-.967-2.713-.967-3.68 0a2.653 2.653 0 0 0-.76 1.842c0 .687.28 1.352.76 1.841a2.61 2.61 0 0 0 1.84.76Z" fill="#EE1282"/><path d="M50.365 24.395a2.638 2.638 0 0 0 .758-1.841c0-.677-.28-1.353-.758-1.842-.968-.957-2.715-.957-3.682 0a2.677 2.677 0 0 0-.76 1.842c0 .686.282 1.362.76 1.84.478.489 1.154.76 1.84.76.687 0 1.354-.271 1.842-.76ZM37.613 16.75c.479-.49.76-1.155.76-1.842s-.28-1.362-.76-1.84c-.967-.969-2.713-.969-3.68 0a2.63 2.63 0 0 0-.76 1.84c0 .688.28 1.352.76 1.842a2.654 2.654 0 0 0 1.84.758c.688 0 1.354-.28 1.84-.758ZM12.655 7.4a2.57 2.57 0 0 0 1.83-.77c.489-.479.77-1.156.77-1.83a2.6 2.6 0 0 0-.77-1.843c-.957-.967-2.704-.967-3.671 0a2.59 2.59 0 0 0-.76 1.842c0 .676.271 1.352.76 1.83a2.6 2.6 0 0 0 1.84.77Zm1.83 17.606a2.59 2.59 0 0 0 .77-1.83 2.64 2.64 0 0 0-.77-1.851c-.967-.968-2.704-.957-3.671 0a2.628 2.628 0 0 0-.76 1.85c0 .678.271 1.353.76 1.831a2.6 2.6 0 0 0 1.84.77c.678 0 1.354-.28 1.831-.77Zm18.537-17.62h1.63v1.626a1.92 1.92 0 0 0 3.84 0V7.386h1.625a1.92 1.92 0 1 0 0-3.84h-1.625V1.921a1.92 1.92 0 1 0-3.84 0v1.625h-1.63a1.92 1.92 0 1 0 0 3.84Zm10.828 3.04a1.92 1.92 0 0 0 2.297-1.447c.514-2.262 1.93-3.553 3.029-4.237a1.92 1.92 0 0 0-2.031-3.258 10.524 10.524 0 0 0-4.742 6.644 1.92 1.92 0 0 0 1.447 2.298Z" fill="#EE1282"/></svg>