<svg width="60" height="60" fill="none" xmlns="http://www.w3.org/2000/svg"><path d="M48.75 15.625h-2.663c.51-.963.78-2.035.788-3.125a6.867 6.867 0 0 0-12.19-4.347c-.068.097-2.878 3.822-4.685 6.227l-4.703-6.25a6.868 6.868 0 0 0-12.172 4.37 6.772 6.772 0 0 0 .787 3.125H11.25a5.633 5.633 0 0 0-5.625 5.625V30A1.875 1.875 0 0 0 7.5 31.875h.625V45a8.458 8.458 0 0 0 9.375 9.375h25A8.458 8.458 0 0 0 51.875 45V31.875h.625A1.875 1.875 0 0 0 54.375 30v-8.75a5.633 5.633 0 0 0-5.625-5.625Zm1.875 5.625v6.875h-18.75v-8.75H48.75a1.878 1.878 0 0 1 1.875 1.875ZM37.597 10.518A3.058 3.058 0 0 1 40 9.374a3.125 3.125 0 1 1 0 6.25h-6.25l3.847-5.107ZM16.875 12.5A3.13 3.13 0 0 1 20 9.375a3.032 3.032 0 0 1 2.37 1.102c.13.178 2.182 2.898 3.88 5.148H20a3.13 3.13 0 0 1-3.125-3.125Zm-7.5 8.75a1.877 1.877 0 0 1 1.875-1.875h16.875v8.75H9.375V21.25Zm2.5 23.75V31.875h16.25v18.75H17.5c-3.943 0-5.625-1.682-5.625-5.625Zm36.25 0c0 3.943-1.682 5.625-5.625 5.625H31.875v-18.75h16.25V45Z" fill="#EE1282"/></svg>