<svg width="60" height="60" fill="none" xmlns="http://www.w3.org/2000/svg"><g clip-path="url(#a)" fill="#EE1282"><path d="M51.31 31.578a17.134 17.134 0 0 1-.048-3.877c.095-.967.142-1.953.114-2.93a23.729 23.729 0 0 0-.38-3.687 11.07 11.07 0 0 0 6.17-9.964C57.166 4.987 52.181 0 46.05 0a11.135 11.135 0 0 0-8.54 4.02 22.967 22.967 0 0 0-18.1-.313C17.276 1.356 14.31 0 11.116 0 4.985 0 0 4.987 0 11.12c0 3.916 2.01 7.461 5.307 9.48a23.157 23.157 0 0 0-.474 4.684c0 .862.048 1.735.143 2.588.227 2.029.018 4.18-.617 6.39a11.79 11.79 0 0 0-.464 3.289c0 9.196 10.861 16.666 24.214 16.666a35.99 35.99 0 0 0 4.966-.35C35.785 57.582 40.155 60 45.102 60 53.328 60 60 53.326 60 45.097c0-6.01-3.563-11.177-8.681-13.528l-.01.01Zm-5.26-28.45c4.407 0 7.989 3.584 7.989 7.992a7.954 7.954 0 0 1-3.848 6.835c-1.744-5.185-5.279-9.565-9.837-12.419a7.994 7.994 0 0 1 5.696-2.408ZM3.127 11.12c0-4.408 3.583-7.992 7.99-7.992 1.99 0 3.857.73 5.307 2.039A23.437 23.437 0 0 0 6.208 17.415a7.933 7.933 0 0 1-3.08-6.285v-.01ZM28.11 51.098c-11.628 0-21.086-6.077-21.086-13.538 0-.815.113-1.63.34-2.427.75-2.607.996-5.166.721-7.603a19.714 19.714 0 0 1-.123-2.246c0-11.111 9.032-20.146 20.139-20.146 10.87 0 19.902 8.836 20.139 19.7.019.844-.02 1.706-.104 2.54a20.27 20.27 0 0 0-.067 3.13c-.966-.2-1.962-.304-2.976-.304-1.961 0-3.838.389-5.553 1.08a10.69 10.69 0 0 0-.313-.919 9.112 9.112 0 0 0 4.596-7.916c0-5.024-4.084-9.12-9.117-9.12a9.125 9.125 0 0 0-6.605 2.835 9.088 9.088 0 0 0-6.606-2.835c-5.023 0-9.117 4.086-9.117 9.12a9.1 9.1 0 0 0 4.597 7.916 11.987 11.987 0 0 0-.825 4.351c0 6.59 5.355 11.945 11.941 11.945h.01c.72 0 1.44-.075 2.151-.199a15.078 15.078 0 0 0 1.1 4.446c-1.08.114-2.17.18-3.27.18l.028.01Zm2.227-7.859c-.72.19-1.459.303-2.217.303-3.734 0-6.928-2.341-8.207-5.63A23.683 23.683 0 0 0 31.36 39.4a14.41 14.41 0 0 0-1.005 3.84h-.019Zm3.109-7.395a20.537 20.537 0 0 1-14.074-1.583c-.019 0-.028-.01-.047-.019a8.82 8.82 0 0 1 1.118-3.877 1.59 1.59 0 0 0 .105-1.327 1.574 1.574 0 0 0-.958-.93 5.99 5.99 0 0 1-4.065-5.668c0-3.3 2.682-5.992 5.99-5.992a6.01 6.01 0 0 1 5.24 3.09c.275.494.796.806 1.365.806.568 0 1.09-.312 1.364-.805a5.988 5.988 0 0 1 11.23 2.9c0 2.57-1.63 4.845-4.065 5.67a1.55 1.55 0 0 0-.957.929c-.161.436-.133.92.104 1.327.436.758.74 1.574.93 2.427a14.922 14.922 0 0 0-3.27 3.052h-.01Zm11.657 21.027c-6.502 0-11.77-5.27-11.77-11.774 0-6.503 5.268-11.774 11.77-11.774 6.501 0 11.77 5.27 11.77 11.774s-5.269 11.774-11.77 11.774Z"/><path d="m50.626 40.929-4.72-2.834a1.583 1.583 0 0 0-1.612 0l-4.72 2.834a1.563 1.563 0 0 0-.759 1.336v5.669c0 .55.285 1.061.758 1.336l4.72 2.834a1.583 1.583 0 0 0 1.612 0l4.72-2.834c.474-.284.759-.796.759-1.336v-5.669a1.54 1.54 0 0 0-.758-1.336Zm-2.37 6.123-3.157 1.896-3.156-1.896v-3.896l3.157-1.895 3.156 1.895v3.896ZM21.47 24.313a1.896 1.896 0 1 0 0-3.792 1.896 1.896 0 0 0 0 3.792Zm13.27 0a1.896 1.896 0 1 0 0-3.792 1.896 1.896 0 0 0 0 3.792Z"/></g><defs><clipPath id="a"><path fill="#fff" d="M0 0h60v60H0z"/></clipPath></defs></svg>