<svg width="60" height="60" fill="none" xmlns="http://www.w3.org/2000/svg"><path fill-rule="evenodd" clip-rule="evenodd" d="M9.375 3.75c-3.084 0-5.625 2.54-5.625 5.625v26.25c0 3.084 2.54 5.625 5.625 5.625h1.875v1.875c0 3.084 2.54 5.625 5.625 5.625h1.875v1.875c0 3.084 2.54 5.625 5.625 5.625h26.25c3.084 0 5.625-2.54 5.625-5.625v-26.25c0-3.084-2.54-5.625-5.625-5.625H48.75v-1.875c0-3.084-2.54-5.625-5.625-5.625H41.25V9.375c0-3.084-2.54-5.625-5.625-5.625H9.375Zm0 3.75h26.25c1.07 0 1.875.804 1.875 1.875v1.875H16.875c-3.084 0-5.625 2.54-5.625 5.625V37.5H9.375c-1.07 0-1.875-.804-1.875-1.875V9.375c0-1.07.804-1.875 1.875-1.875Zm7.5 7.5h26.25c1.07 0 1.875.804 1.875 1.875v1.875H24.375c-3.084 0-5.625 2.54-5.625 5.625V45h-1.875C15.805 45 15 44.196 15 43.125v-26.25c0-1.07.804-1.875 1.875-1.875Zm7.5 7.5h26.25c1.07 0 1.875.804 1.875 1.875v26.25c0 1.07-.804 1.875-1.875 1.875h-26.25c-1.07 0-1.875-.804-1.875-1.875v-26.25c0-1.07.804-1.875 1.875-1.875Z" fill="#EE1282"/><path fill-rule="evenodd" clip-rule="evenodd" d="M37.5 26.25a1.875 1.875 0 0 0-1.875 1.875v7.5h-7.5a1.875 1.875 0 1 0 0 3.75h7.5v7.5a1.875 1.875 0 1 0 3.75 0v-7.5h7.5a1.875 1.875 0 1 0 0-3.75h-7.5v-7.5A1.875 1.875 0 0 0 37.5 26.25Z" fill="#EE1282"/></svg>