<svg width="147" height="146" viewBox="0 0 147 146" fill="none" xmlns="http://www.w3.org/2000/svg">
<g filter="url(#filter0_b_1075_734)">
<path fill-rule="evenodd" clip-rule="evenodd" d="M13.5471 1.8853C12.7674 1.8853 12.0064 1.96152 11.2711 2.10661C10.759 2.20765 10.2618 1.87554 10.1605 1.36482C10.0592 0.85411 10.3922 0.358189 10.9042 0.257155C11.7598 0.0883533 12.6435 0 13.5471 0H16.7566C17.2786 0 17.7018 0.42204 17.7018 0.942652C17.7018 1.46326 17.2786 1.8853 16.7566 1.8853H13.5471ZM22.2306 0.942652C22.2306 0.42204 22.6538 0 23.1758 0H29.5949C30.1168 0 30.54 0.42204 30.54 0.942652C30.54 1.46326 30.1168 1.8853 29.5949 1.8853H23.1758C22.6538 1.8853 22.2306 1.46326 22.2306 0.942652ZM35.0688 0.942652C35.0688 0.42204 35.492 0 36.014 0H42.4331C42.9551 0 43.3782 0.42204 43.3782 0.942652C43.3782 1.46326 42.9551 1.8853 42.4331 1.8853H36.014C35.492 1.8853 35.0688 1.46326 35.0688 0.942652ZM47.9071 0.942652C47.9071 0.42204 48.3302 0 48.8522 0H55.2713C55.7933 0 56.2165 0.42204 56.2165 0.942652C56.2165 1.46326 55.7933 1.8853 55.2713 1.8853H48.8522C48.3302 1.8853 47.9071 1.46326 47.9071 0.942652ZM60.7453 0.942652C60.7453 0.42204 61.1684 0 61.6904 0H68.1095C68.6315 0 69.0547 0.42204 69.0547 0.942652C69.0547 1.46326 68.6315 1.8853 68.1095 1.8853H61.6904C61.1684 1.8853 60.7453 1.46326 60.7453 0.942652ZM73.5835 0.942652C73.5835 0.42204 74.0067 0 74.5286 0H80.9478C81.4697 0 81.8929 0.42204 81.8929 0.942652C81.8929 1.46326 81.4697 1.8853 80.9478 1.8853H74.5286C74.0067 1.8853 73.5835 1.46326 73.5835 0.942652ZM86.4217 0.942652C86.4217 0.42204 86.8449 0 87.3669 0H93.786C94.308 0 94.7311 0.42204 94.7311 0.942652C94.7311 1.46326 94.308 1.8853 93.786 1.8853H87.3669C86.8449 1.8853 86.4217 1.46326 86.4217 0.942652ZM99.2599 0.942652C99.2599 0.42204 99.6831 0 100.205 0H106.624C107.146 0 107.569 0.42204 107.569 0.942652C107.569 1.46326 107.146 1.8853 106.624 1.8853H100.205C99.6831 1.8853 99.2599 1.46326 99.2599 0.942652ZM112.098 0.942652C112.098 0.42204 112.521 0 113.043 0H116.253C117.156 0 118.04 0.0883533 118.896 0.257155C119.408 0.358189 119.741 0.85411 119.639 1.36482C119.538 1.87554 119.041 2.20765 118.529 2.10661C117.794 1.96152 117.033 1.8853 116.253 1.8853H113.043C112.521 1.8853 112.098 1.46326 112.098 0.942652ZM122.469 2.53524C122.76 2.10263 123.347 1.98671 123.781 2.27634C125.257 3.26251 126.529 4.53054 127.518 6.00356C127.808 6.43618 127.692 7.02167 127.258 7.31129C126.824 7.60092 126.237 7.48501 125.947 7.0524C125.096 5.78415 124 4.69203 122.729 3.84297C122.295 3.55334 122.179 2.96785 122.469 2.53524ZM7.33064 2.53524C7.62103 2.96785 7.50481 3.55334 7.07105 3.84297C5.79946 4.69203 4.70445 5.78415 3.85313 7.0524C3.56274 7.48501 2.9757 7.60092 2.54194 7.31129C2.10819 7.02167 1.99197 6.43618 2.28236 6.00356C3.27114 4.53054 4.54253 3.26251 6.01945 2.27634C6.4532 1.98671 7.04024 2.10263 7.33064 2.53524ZM128.432 10.1337C128.944 10.0326 129.441 10.3648 129.542 10.8755C129.711 11.7287 129.8 12.6102 129.8 13.5113V16.7124C129.8 17.233 129.377 17.6551 128.855 17.6551C128.333 17.6551 127.91 17.233 127.91 16.7124V13.5113C127.91 12.7337 127.833 11.9748 127.688 11.2414C127.586 10.7306 127.919 10.2347 128.432 10.1337ZM1.36843 10.1337C1.8805 10.2347 2.21349 10.7306 2.11219 11.2414C1.96671 11.9748 1.89029 12.7337 1.89029 13.5113V16.7124C1.89029 17.233 1.46713 17.6551 0.945145 17.6551C0.423156 17.6551 0 17.233 0 16.7124V13.5113C0 12.6102 0.0885871 11.7287 0.257835 10.8755C0.359137 10.3648 0.856369 10.0326 1.36843 10.1337ZM128.855 22.172C129.377 22.172 129.8 22.594 129.8 23.1146V29.5168C129.8 30.0374 129.377 30.4594 128.855 30.4594C128.333 30.4594 127.91 30.0374 127.91 29.5168V23.1146C127.91 22.594 128.333 22.172 128.855 22.172ZM0.945145 22.172C1.46713 22.172 1.89029 22.594 1.89029 23.1146V29.5168C1.89029 30.0374 1.46713 30.4594 0.945145 30.4594C0.423156 30.4594 0 30.0374 0 29.5168V23.1146C0 22.594 0.423156 22.172 0.945145 22.172ZM128.855 34.9763C129.377 34.9763 129.8 35.3983 129.8 35.919V42.3211C129.8 42.8417 129.377 43.2638 128.855 43.2638C128.333 43.2638 127.91 42.8417 127.91 42.3211V35.919C127.91 35.3983 128.333 34.9763 128.855 34.9763ZM0.945145 34.9763C1.46713 34.9763 1.89029 35.3983 1.89029 35.919V42.3211C1.89029 42.8417 1.46713 43.2638 0.945145 43.2638C0.423156 43.2638 0 42.8417 0 42.3211V35.919C0 35.3983 0.423156 34.9763 0.945145 34.9763ZM0.945145 47.7807C1.46713 47.7807 1.89029 48.2027 1.89029 48.7233V55.1255C1.89029 55.6461 1.46713 56.0681 0.945145 56.0681C0.423156 56.0681 0 55.6461 0 55.1255V48.7233C0 48.2027 0.423156 47.7807 0.945145 47.7807ZM128.855 47.7807C129.377 47.7807 129.8 48.2027 129.8 48.7233V55.1255C129.8 55.6461 129.377 56.0681 128.855 56.0681C128.333 56.0681 127.91 55.6461 127.91 55.1255V48.7233C127.91 48.2027 128.333 47.7807 128.855 47.7807ZM0.945145 60.585C1.46713 60.585 1.89029 61.007 1.89029 61.5277V67.9298C1.89029 68.4504 1.46713 68.8725 0.945145 68.8725C0.423156 68.8725 0 68.4504 0 67.9298V61.5277C0 61.007 0.423156 60.585 0.945145 60.585ZM128.855 60.585C129.377 60.585 129.8 61.007 129.8 61.5277V67.9298C129.8 68.4504 129.377 68.8725 128.855 68.8725C128.333 68.8725 127.91 68.4504 127.91 67.9298V61.5277C127.91 61.007 128.333 60.585 128.855 60.585ZM0.945145 73.3894C1.46713 73.3894 1.89029 73.8114 1.89029 74.332V80.7342C1.89029 81.2548 1.46713 81.6768 0.945145 81.6768C0.423156 81.6768 0 81.2548 0 80.7342V74.332C0 73.8114 0.423156 73.3894 0.945145 73.3894ZM128.855 73.3894C129.377 73.3894 129.8 73.8114 129.8 74.332V80.7342C129.8 81.2548 129.377 81.6768 128.855 81.6768C128.333 81.6768 127.91 81.2548 127.91 80.7342V74.332C127.91 73.8114 128.333 73.3894 128.855 73.3894ZM0.945145 86.1937C1.46713 86.1937 1.89029 86.6157 1.89029 87.1364V93.5385C1.89029 94.0592 1.46713 94.4812 0.945145 94.4812C0.423156 94.4812 0 94.0592 0 93.5385V87.1364C0 86.6157 0.423156 86.1937 0.945145 86.1937ZM128.855 86.1937C129.377 86.1937 129.8 86.6157 129.8 87.1364V93.5385C129.8 94.0592 129.377 94.4812 128.855 94.4812C128.333 94.4812 127.91 94.0592 127.91 93.5385V87.1364C127.91 86.6157 128.333 86.1937 128.855 86.1937ZM0.945145 98.9981C1.46713 98.9981 1.89029 99.4201 1.89029 99.9407V106.343C1.89029 106.864 1.46713 107.286 0.945145 107.286C0.423156 107.286 0 106.864 0 106.343V99.9407C0 99.4201 0.423156 98.9981 0.945145 98.9981ZM128.855 98.9981C129.377 98.9981 129.8 99.4201 129.8 99.9407V106.343C129.8 106.864 129.377 107.286 128.855 107.286C128.333 107.286 127.91 106.864 127.91 106.343V99.9407C127.91 99.4201 128.333 98.9981 128.855 98.9981ZM0.945145 111.802C1.46713 111.802 1.89029 112.224 1.89029 112.745V115.946C1.89029 116.724 1.96671 117.483 2.11219 118.216C2.21349 118.727 1.8805 119.223 1.36843 119.324C0.856369 119.425 0.359137 119.093 0.257835 118.582C0.088587 117.729 0 116.847 0 115.946V112.745C0 112.224 0.423156 111.802 0.945145 111.802ZM128.855 111.802C129.377 111.802 129.8 112.224 129.8 112.745V115.946C129.8 116.847 129.711 117.729 129.542 118.582C129.441 119.093 128.944 119.425 128.432 119.324C127.919 119.223 127.586 118.727 127.688 118.216C127.833 117.483 127.91 116.724 127.91 115.946V112.745C127.91 112.224 128.333 111.802 128.855 111.802ZM2.54194 122.146C2.9757 121.857 3.56274 121.972 3.85313 122.405C4.70445 123.673 5.79946 124.765 7.07105 125.615C7.50481 125.904 7.62103 126.49 7.33064 126.922C7.04024 127.355 6.4532 127.471 6.01945 127.181C4.54253 126.195 3.27114 124.927 2.28236 123.454C1.99197 123.021 2.10819 122.436 2.54194 122.146ZM127.258 122.146C127.692 122.436 127.808 123.021 127.518 123.454C126.529 124.927 125.257 126.195 123.781 127.181C123.347 127.471 122.76 127.355 122.469 126.922C122.179 126.49 122.295 125.904 122.729 125.615C124 124.765 125.096 123.673 125.947 122.405C126.237 121.972 126.824 121.857 127.258 122.146ZM10.1605 128.093C10.2618 127.582 10.759 127.25 11.2711 127.351C12.0064 127.496 12.7674 127.572 13.5471 127.572H16.7566C17.2786 127.572 17.7018 127.994 17.7018 128.515C17.7018 129.035 17.2786 129.457 16.7566 129.457H13.5471C12.6435 129.457 11.7598 129.369 10.9042 129.2C10.3922 129.099 10.0592 128.603 10.1605 128.093ZM119.639 128.093C119.741 128.603 119.408 129.099 118.896 129.2C118.04 129.369 117.156 129.457 116.253 129.457H113.043C112.521 129.457 112.098 129.035 112.098 128.515C112.098 127.994 112.521 127.572 113.043 127.572H116.253C117.033 127.572 117.794 127.496 118.529 127.351C119.041 127.25 119.538 127.582 119.639 128.093ZM22.2306 128.515C22.2306 127.994 22.6538 127.572 23.1758 127.572H29.5949C30.1169 127.572 30.54 127.994 30.54 128.515C30.54 129.035 30.1169 129.457 29.5949 129.457H23.1758C22.6538 129.457 22.2306 129.035 22.2306 128.515ZM35.0688 128.515C35.0688 127.994 35.492 127.572 36.014 127.572H42.4331C42.9551 127.572 43.3782 127.994 43.3782 128.515C43.3782 129.035 42.9551 129.457 42.4331 129.457H36.014C35.492 129.457 35.0688 129.035 35.0688 128.515ZM47.9071 128.515C47.9071 127.994 48.3302 127.572 48.8522 127.572H55.2713C55.7933 127.572 56.2165 127.994 56.2165 128.515C56.2165 129.035 55.7933 129.457 55.2713 129.457H48.8522C48.3302 129.457 47.9071 129.035 47.9071 128.515ZM60.7453 128.515C60.7453 127.994 61.1684 127.572 61.6904 127.572H68.1095C68.6315 127.572 69.0547 127.994 69.0547 128.515C69.0547 129.035 68.6315 129.457 68.1095 129.457H61.6904C61.1684 129.457 60.7453 129.035 60.7453 128.515ZM73.5835 128.515C73.5835 127.994 74.0067 127.572 74.5286 127.572H80.9478C81.4697 127.572 81.8929 127.994 81.8929 128.515C81.8929 129.035 81.4697 129.457 80.9478 129.457H74.5286C74.0067 129.457 73.5835 129.035 73.5835 128.515ZM86.4217 128.515C86.4217 127.994 86.8449 127.572 87.3669 127.572H93.786C94.308 127.572 94.7311 127.994 94.7311 128.515C94.7311 129.035 94.308 129.457 93.786 129.457H87.3669C86.8449 129.457 86.4217 129.035 86.4217 128.515ZM99.2599 128.515C99.2599 127.994 99.6831 127.572 100.205 127.572H106.624C107.146 127.572 107.569 127.994 107.569 128.515C107.569 129.035 107.146 129.457 106.624 129.457H100.205C99.6831 129.457 99.2599 129.035 99.2599 128.515Z" fill="#2CE1F8"/>
</g>
<g filter="url(#filter1_d_1075_734)">
<path d="M135.619 140.773L132.762 130.777C132.615 130.261 133.152 129.815 133.641 130.049L143.106 134.565C143.61 134.805 143.572 135.525 143.046 135.711L139.153 137.087C139.012 137.137 138.894 137.235 138.819 137.364L136.772 140.914C136.496 141.393 135.771 141.305 135.619 140.773Z" fill="#221A2E"/>
</g>
<g filter="url(#filter2_d_1075_734)">
<path fill-rule="evenodd" clip-rule="evenodd" d="M134.238 140.92L131.426 131.183C130.991 129.675 132.553 128.379 133.981 129.065L143.196 133.492C144.666 134.199 144.563 136.301 143.033 136.838L139.467 138.089L137.601 141.342L136.553 140.747L137.601 141.342C136.8 142.738 134.687 142.473 134.238 140.92ZM138.836 137.022C138.699 137.07 138.584 137.165 138.512 137.29L136.536 140.737C136.269 141.203 135.564 141.114 135.415 140.597L132.603 130.86C132.458 130.357 132.978 129.925 133.454 130.154L142.669 134.581C143.159 134.816 143.125 135.517 142.615 135.696L138.836 137.022Z" fill="white"/>
</g>
<defs>
<filter id="filter0_b_1075_734" x="-30" y="-30" width="189.8" height="189.458" filterUnits="userSpaceOnUse" color-interpolation-filters="sRGB">
<feFlood flood-opacity="0" result="BackgroundImageFix"/>
<feGaussianBlur in="BackgroundImageFix" stdDeviation="15"/>
<feComposite in2="SourceAlpha" operator="in" result="effect1_backgroundBlur_1075_734"/>
<feBlend mode="normal" in="SourceGraphic" in2="effect1_backgroundBlur_1075_734" result="shape"/>
</filter>
<filter id="filter1_d_1075_734" x="130.738" y="128.985" width="14.7255" height="15.2422" filterUnits="userSpaceOnUse" color-interpolation-filters="sRGB">
<feFlood flood-opacity="0" result="BackgroundImageFix"/>
<feColorMatrix in="SourceAlpha" type="matrix" values="0 0 0 0 0 0 0 0 0 0 0 0 0 0 0 0 0 0 127 0" result="hardAlpha"/>
<feOffset dy="1"/>
<feGaussianBlur stdDeviation="1"/>
<feComposite in2="hardAlpha" operator="out"/>
<feColorMatrix type="matrix" values="0 0 0 0 0 0 0 0 0 0 0 0 0 0 0 0 0 0 0.08 0"/>
<feBlend mode="normal" in2="BackgroundImageFix" result="effect1_dropShadow_1075_734"/>
<feBlend mode="normal" in="SourceGraphic" in2="effect1_dropShadow_1075_734" result="shape"/>
</filter>
<filter id="filter2_d_1075_734" x="129.352" y="127.876" width="16.8894" height="17.3755" filterUnits="userSpaceOnUse" color-interpolation-filters="sRGB">
<feFlood flood-opacity="0" result="BackgroundImageFix"/>
<feColorMatrix in="SourceAlpha" type="matrix" values="0 0 0 0 0 0 0 0 0 0 0 0 0 0 0 0 0 0 127 0" result="hardAlpha"/>
<feOffset dy="1"/>
<feGaussianBlur stdDeviation="1"/>
<feComposite in2="hardAlpha" operator="out"/>
<feColorMatrix type="matrix" values="0 0 0 0 0 0 0 0 0 0 0 0 0 0 0 0 0 0 0.08 0"/>
<feBlend mode="normal" in2="BackgroundImageFix" result="effect1_dropShadow_1075_734"/>
<feBlend mode="normal" in="SourceGraphic" in2="effect1_dropShadow_1075_734" result="shape"/>
</filter>
</defs>
</svg>
