<svg width="147" height="146" fill="none" xmlns="http://www.w3.org/2000/svg"><g filter="url(#a)"><path fill-rule="evenodd" clip-rule="evenodd" d="M13.547 1.885c-.78 0-1.54.077-2.276.222a.943.943 0 1 1-.367-1.85C11.76.088 12.644 0 13.547 0h3.21a.944.944 0 1 1 0 1.885h-3.21Zm8.684-.942c0-.521.423-.943.945-.943h6.419a.944.944 0 1 1 0 1.885h-6.42a.944.944 0 0 1-.944-.942Zm12.838 0c0-.521.423-.943.945-.943h6.42a.944.944 0 1 1 0 1.885h-6.42a.944.944 0 0 1-.945-.942Zm12.838 0c0-.521.423-.943.945-.943h6.42a.944.944 0 1 1 0 1.885h-6.42a.944.944 0 0 1-.945-.942Zm12.838 0c0-.521.423-.943.945-.943h6.42a.944.944 0 1 1 0 1.885h-6.42a.944.944 0 0 1-.945-.942Zm12.839 0c0-.521.423-.943.945-.943h6.419a.944.944 0 1 1 0 1.885h-6.42a.944.944 0 0 1-.945-.942Zm12.838 0c0-.521.423-.943.945-.943h6.419a.944.944 0 1 1 0 1.885h-6.42a.944.944 0 0 1-.944-.942Zm12.838 0c0-.521.423-.943.945-.943h6.419a.944.944 0 1 1 0 1.885h-6.419a.944.944 0 0 1-.945-.942Zm12.838 0c0-.521.423-.943.945-.943h3.21c.903 0 1.787.088 2.643.257a.942.942 0 1 1-.367 1.85 11.744 11.744 0 0 0-2.276-.222h-3.21a.944.944 0 0 1-.945-.942Zm10.371 1.592a.948.948 0 0 1 1.312-.259 13.614 13.614 0 0 1 3.737 3.728.941.941 0 0 1-.26 1.307.946.946 0 0 1-1.311-.259 11.715 11.715 0 0 0-3.218-3.209.941.941 0 0 1-.26-1.308Zm-115.138 0a.941.941 0 0 1-.26 1.308 11.71 11.71 0 0 0-3.218 3.21.947.947 0 0 1-1.311.258.941.941 0 0 1-.26-1.307A13.599 13.599 0 0 1 6.02 2.276a.947.947 0 0 1 1.312.26Zm121.101 7.599a.944.944 0 0 1 1.11.742c.169.853.258 1.734.258 2.635v3.201a.944.944 0 0 1-.945.943.944.944 0 0 1-.945-.943v-3.2c0-.778-.077-1.537-.222-2.27a.942.942 0 0 1 .744-1.108Zm-127.064 0a.943.943 0 0 1 .744 1.107 11.657 11.657 0 0 0-.222 2.27v3.201a.944.944 0 0 1-.945.943.944.944 0 0 1-.945-.943v-3.2c0-.902.089-1.783.258-2.636a.945.945 0 0 1 1.11-.742Zm127.487 12.038c.522 0 .945.422.945.943v6.402c0 .52-.423.942-.945.942a.944.944 0 0 1-.945-.942v-6.402c0-.521.423-.943.945-.943Zm-127.91 0c.522 0 .945.422.945.943v6.402c0 .52-.423.942-.945.942A.944.944 0 0 1 0 29.517v-6.402c0-.521.423-.943.945-.943Zm127.91 12.804c.522 0 .945.422.945.943v6.402a.944.944 0 0 1-1.89 0V35.92c0-.52.423-.943.945-.943Zm-127.91 0c.522 0 .945.422.945.943v6.402a.944.944 0 0 1-1.89 0V35.92c0-.52.423-.943.945-.943Zm0 12.805c.522 0 .945.422.945.942v6.403c0 .52-.423.942-.945.942A.944.944 0 0 1 0 55.126v-6.403c0-.52.423-.942.945-.942Zm127.91 0c.522 0 .945.422.945.942v6.403c0 .52-.423.942-.945.942a.944.944 0 0 1-.945-.942v-6.403c0-.52.423-.942.945-.942ZM.945 60.585c.522 0 .945.422.945.943v6.402c0 .52-.423.942-.945.942A.944.944 0 0 1 0 67.93v-6.402c0-.521.423-.943.945-.943Zm127.91 0c.522 0 .945.422.945.943v6.402c0 .52-.423.942-.945.942a.944.944 0 0 1-.945-.942v-6.402c0-.521.423-.943.945-.943ZM.945 73.389c.522 0 .945.422.945.943v6.402a.944.944 0 0 1-1.89 0v-6.402c0-.52.423-.943.945-.943Zm127.91 0c.522 0 .945.422.945.943v6.402c0 .52-.423.943-.945.943a.944.944 0 0 1-.945-.943v-6.402c0-.52.423-.943.945-.943ZM.945 86.194c.522 0 .945.422.945.942v6.403c0 .52-.423.942-.945.942A.944.944 0 0 1 0 93.54v-6.403c0-.52.423-.942.945-.942Zm127.91 0c.522 0 .945.422.945.942v6.403c0 .52-.423.942-.945.942a.944.944 0 0 1-.945-.942v-6.403c0-.52.423-.942.945-.942ZM.945 98.998c.522 0 .945.422.945.943v6.402a.944.944 0 0 1-.945.943.944.944 0 0 1-.945-.943v-6.402c0-.52.423-.943.945-.943Zm127.91 0c.522 0 .945.422.945.943v6.402a.944.944 0 0 1-.945.943.944.944 0 0 1-.945-.943v-6.402c0-.52.423-.943.945-.943ZM.945 111.802c.522 0 .945.422.945.943v3.201c0 .778.077 1.537.222 2.27a.945.945 0 0 1-1.854.366A13.539 13.539 0 0 1 0 115.946v-3.201c0-.521.423-.943.945-.943Zm127.91 0c.522 0 .945.422.945.943v3.201c0 .901-.089 1.783-.258 2.636a.944.944 0 0 1-1.854-.366c.145-.733.222-1.492.222-2.27v-3.201c0-.521.423-.943.945-.943ZM2.542 122.146a.947.947 0 0 1 1.311.259 11.729 11.729 0 0 0 3.218 3.21.94.94 0 0 1 .26 1.307.946.946 0 0 1-1.312.259 13.596 13.596 0 0 1-3.737-3.727.941.941 0 0 1 .26-1.308Zm124.716 0c.434.29.55.875.26 1.308a13.611 13.611 0 0 1-3.737 3.727.947.947 0 0 1-1.312-.259.94.94 0 0 1 .26-1.307 11.733 11.733 0 0 0 3.218-3.21.947.947 0 0 1 1.311-.259Zm-117.097 5.947a.945.945 0 0 1 1.11-.742 11.75 11.75 0 0 0 2.276.221h3.21a.944.944 0 1 1 0 1.885h-3.21a13.63 13.63 0 0 1-2.643-.257.942.942 0 0 1-.743-1.107Zm109.478 0a.941.941 0 0 1-.743 1.107c-.856.169-1.74.257-2.643.257h-3.21a.944.944 0 1 1 0-1.885h3.21c.78 0 1.541-.076 2.276-.221a.944.944 0 0 1 1.11.742Zm-97.408.422c0-.521.423-.943.945-.943h6.419a.944.944 0 1 1 0 1.885h-6.42a.944.944 0 0 1-.944-.942Zm12.838 0c0-.521.423-.943.945-.943h6.42a.944.944 0 1 1 0 1.885h-6.42a.944.944 0 0 1-.945-.942Zm12.838 0c0-.521.423-.943.945-.943h6.42c.521 0 .945.422.945.943 0 .52-.424.942-.946.942h-6.419a.944.944 0 0 1-.945-.942Zm12.838 0c0-.521.423-.943.945-.943h6.42c.522 0 .945.422.945.943 0 .52-.424.942-.946.942H61.69a.944.944 0 0 1-.945-.942Zm12.839 0c0-.521.423-.943.945-.943h6.419a.944.944 0 1 1 0 1.885h-6.42a.944.944 0 0 1-.945-.942Zm12.838 0c0-.521.423-.943.945-.943h6.419a.944.944 0 1 1 0 1.885h-6.42a.944.944 0 0 1-.944-.942Zm12.838 0c0-.521.423-.943.945-.943h6.419a.944.944 0 1 1 0 1.885h-6.419a.944.944 0 0 1-.945-.942Z" fill="#2CE1F8"/></g><g filter="url(#b)"><path d="m135.619 140.773-2.857-9.996c-.147-.516.39-.962.879-.728l9.465 4.516c.504.24.466.96-.06 1.146l-3.893 1.376a.629.629 0 0 0-.334.277l-2.047 3.55a.633.633 0 0 1-1.153-.141Z" fill="#221A2E"/></g><g filter="url(#c)"><path fill-rule="evenodd" clip-rule="evenodd" d="m134.238 140.92-2.812-9.737c-.435-1.508 1.127-2.804 2.555-2.118l9.215 4.427c1.47.707 1.367 2.809-.163 3.346l-3.566 1.251-1.866 3.253-1.048-.595 1.048.595c-.801 1.396-2.914 1.131-3.363-.422Zm4.598-3.898a.604.604 0 0 0-.324.268l-1.976 3.447c-.267.466-.972.377-1.121-.14l-2.812-9.737c-.145-.503.375-.935.851-.706l9.215 4.427a.603.603 0 0 1-.054 1.115l-3.779 1.326Z" fill="#fff"/></g><defs><filter id="a" x="-30" y="-30" width="189.8" height="189.458" filterUnits="userSpaceOnUse" color-interpolation-filters="sRGB"><feFlood flood-opacity="0" result="BackgroundImageFix"/><feGaussianBlur in="BackgroundImageFix" stdDeviation="15"/><feComposite in2="SourceAlpha" operator="in" result="effect1_backgroundBlur_1075_734"/><feBlend in="SourceGraphic" in2="effect1_backgroundBlur_1075_734" result="shape"/></filter><filter id="b" x="130.738" y="128.985" width="14.726" height="15.242" filterUnits="userSpaceOnUse" color-interpolation-filters="sRGB"><feFlood flood-opacity="0" result="BackgroundImageFix"/><feColorMatrix in="SourceAlpha" values="0 0 0 0 0 0 0 0 0 0 0 0 0 0 0 0 0 0 127 0" result="hardAlpha"/><feOffset dy="1"/><feGaussianBlur stdDeviation="1"/><feComposite in2="hardAlpha" operator="out"/><feColorMatrix values="0 0 0 0 0 0 0 0 0 0 0 0 0 0 0 0 0 0 0.08 0"/><feBlend in2="BackgroundImageFix" result="effect1_dropShadow_1075_734"/><feBlend in="SourceGraphic" in2="effect1_dropShadow_1075_734" result="shape"/></filter><filter id="c" x="129.352" y="127.876" width="16.889" height="17.375" filterUnits="userSpaceOnUse" color-interpolation-filters="sRGB"><feFlood flood-opacity="0" result="BackgroundImageFix"/><feColorMatrix in="SourceAlpha" values="0 0 0 0 0 0 0 0 0 0 0 0 0 0 0 0 0 0 127 0" result="hardAlpha"/><feOffset dy="1"/><feGaussianBlur stdDeviation="1"/><feComposite in2="hardAlpha" operator="out"/><feColorMatrix values="0 0 0 0 0 0 0 0 0 0 0 0 0 0 0 0 0 0 0.08 0"/><feBlend in2="BackgroundImageFix" result="effect1_dropShadow_1075_734"/><feBlend in="SourceGraphic" in2="effect1_dropShadow_1075_734" result="shape"/></filter></defs></svg>