<svg width="35" height="35" viewBox="0 0 35 35" fill="none" xmlns="http://www.w3.org/2000/svg">
<path fill-rule="evenodd" clip-rule="evenodd" d="M24.9495 21.1455C23.8224 21.1455 22.7413 21.6064 21.9443 22.4269C21.1473 23.2474 20.6995 24.3602 20.6995 25.5205C20.6995 26.6808 21.1473 27.7936 21.9443 28.6141C22.7413 29.4346 23.8224 29.8955 24.9495 29.8955C26.0767 29.8955 27.1577 29.4346 27.9547 28.6141C28.7518 27.7936 29.1995 26.6808 29.1995 25.5205C29.1995 24.3602 28.7518 23.2474 27.9547 22.4269C27.1577 21.6064 26.0767 21.1455 24.9495 21.1455ZM24.9495 18.958C24.1123 18.958 23.2834 19.1278 22.5099 19.4575C21.7365 19.7873 21.0337 20.2707 20.4417 20.8801C19.8497 21.4895 19.3802 22.2129 19.0598 23.0091C18.7394 23.8053 18.5745 24.6587 18.5745 25.5205C18.5745 26.3823 18.7394 27.2357 19.0598 28.0319C19.3802 28.8281 19.8497 29.5515 20.4417 30.1609C21.0337 30.7703 21.7365 31.2537 22.5099 31.5835C23.2834 31.9133 24.1123 32.083 24.9495 32.083C26.6403 32.083 28.2618 31.3916 29.4573 30.1609C30.6529 28.9302 31.3245 27.261 31.3245 25.5205C31.3245 23.78 30.6529 22.1108 29.4573 20.8801C28.2618 19.6494 26.6403 18.958 24.9495 18.958Z" fill="white"/>
<path d="M23.5745 13.8545C23.5745 13.2743 23.7984 12.7179 24.1969 12.3077C24.5954 11.8975 25.1359 11.667 25.6995 11.667C26.2631 11.667 26.8036 11.8975 27.2021 12.3077C27.6006 12.7179 27.8245 13.2743 27.8245 13.8545C27.8245 14.4347 27.6006 14.9911 27.2021 15.4013C26.8036 15.8115 26.2631 16.042 25.6995 16.042C25.1359 16.042 24.5954 15.8115 24.1969 15.4013C23.7984 14.9911 23.5745 14.4347 23.5745 13.8545Z" fill="white"/>
<path fill-rule="evenodd" clip-rule="evenodd" d="M4.0185 15.9429C3.7685 15.8092 3.5803 15.5788 3.49529 15.3023C3.41028 15.0258 3.43541 14.7259 3.56516 14.4685L5.94658 9.74495C6.10527 9.43052 6.32582 9.15355 6.5942 8.93168C6.86257 8.70981 7.17289 8.5479 7.50539 8.45626C7.83788 8.36462 8.18528 8.34526 8.52544 8.39941C8.8656 8.45356 9.19109 8.58004 9.48116 8.77078L12.5312 10.776C12.5728 10.8033 12.6194 10.8215 12.6681 10.8292C12.7168 10.837 12.7666 10.8342 12.8142 10.821C12.8618 10.8078 12.9062 10.7846 12.9446 10.7527C12.9829 10.7208 13.0144 10.6811 13.037 10.636L14.7044 7.32995C14.863 7.0154 15.0834 6.73829 15.3518 6.51627C15.6201 6.29425 15.9304 6.13219 16.2629 6.04041C16.5954 5.94863 16.9428 5.92915 17.283 5.98319C17.6233 6.03724 17.9488 6.16363 18.239 6.35432L21.2891 8.35953C21.3305 8.38694 21.377 8.40516 21.4257 8.41302C21.4744 8.42088 21.5241 8.4182 21.5717 8.40516C21.6193 8.39213 21.6637 8.36901 21.7021 8.3373C21.7405 8.30559 21.7721 8.26597 21.7948 8.22099L24.1748 3.49891C24.3045 3.24132 24.5282 3.04728 24.7968 2.95949C24.9298 2.91602 25.0698 2.89994 25.2088 2.91218C25.3478 2.92441 25.4832 2.96471 25.6071 3.03078C25.731 3.09685 25.841 3.1874 25.9309 3.29725C26.0208 3.4071 26.0889 3.53411 26.1311 3.67102C26.1733 3.80793 26.1889 3.95206 26.1771 4.09518C26.1652 4.2383 26.126 4.37761 26.0618 4.50516L23.6804 9.23161C23.5217 9.54604 23.3012 9.82301 23.0328 10.0449C22.7644 10.2668 22.4541 10.4287 22.1216 10.5203C21.7891 10.6119 21.4417 10.6313 21.1016 10.5772C20.7614 10.523 20.4359 10.3965 20.1458 10.2058L17.0957 8.20057C17.0543 8.17316 17.0078 8.15494 16.9591 8.14709C16.9105 8.13923 16.8608 8.1419 16.8132 8.15494C16.7656 8.16798 16.7211 8.19109 16.6827 8.2228C16.6443 8.25452 16.6127 8.29413 16.59 8.33911L14.9226 11.6466C14.7639 11.961 14.5433 12.238 14.275 12.4599C14.0066 12.6818 13.6963 12.8437 13.3638 12.9353C13.0313 13.0269 12.6839 13.0463 12.3437 12.9922C12.0036 12.938 11.6781 12.8115 11.388 12.6208L8.33791 10.6141C8.29648 10.5867 8.24996 10.5685 8.2013 10.5606C8.15264 10.5528 8.10293 10.5554 8.05534 10.5685C8.00774 10.5815 7.96331 10.6046 7.92489 10.6363C7.88646 10.6681 7.85488 10.7077 7.83216 10.7527L5.45216 15.4762C5.38787 15.6038 5.29976 15.7171 5.19289 15.8097C5.08601 15.9022 4.96246 15.9721 4.82931 16.0155C4.69616 16.0588 4.55601 16.0747 4.41688 16.0623C4.27775 16.0498 4.14238 16.0092 4.0185 15.9429ZM18.8382 14.9774C18.9722 15.1109 19.0698 15.2784 19.121 15.4629C19.1722 15.6475 19.1753 15.8427 19.1301 16.0289L15.6975 30.1777C15.6524 30.364 15.5604 30.5349 15.4308 30.673C15.3012 30.8112 15.1386 30.9118 14.9593 30.9647C14.7799 31.0176 14.5902 31.021 14.4092 30.9745C14.2282 30.928 14.0622 30.8332 13.9281 30.6997L3.73658 20.5658C3.60259 20.4323 3.50507 20.2649 3.45383 20.0804C3.40258 19.8958 3.39941 19.7007 3.44463 19.5145C3.48985 19.3283 3.58187 19.1576 3.71144 19.0196C3.84102 18.8816 4.00359 18.7811 4.18283 18.7283L17.8069 14.712C17.9863 14.6591 18.1761 14.6558 18.3571 14.7024C18.5382 14.749 18.7041 14.8439 18.8382 14.9774ZM14.0811 27.8108L16.6226 17.337L6.53591 20.3091L14.0811 27.8108Z" fill="white"/>
</svg>
