<svg width="36" height="36" viewBox="0 0 36 36" fill="none" xmlns="http://www.w3.org/2000/svg">
<path d="M9.88565 2.99146C8.04065 2.99146 6.27122 3.73997 4.96661 5.07234C3.662 6.40471 2.92908 8.21179 2.92908 10.096C2.92908 11.9803 3.662 13.7874 4.96661 15.1197C6.27122 16.4521 8.04065 17.2006 9.88565 17.2006H15.7438C16.0351 17.2006 16.3145 17.0824 16.5205 16.8721C16.7265 16.6617 16.8422 16.3764 16.8422 16.0788V10.096C16.8422 8.21179 16.1093 6.40471 14.8047 5.07234C13.5001 3.73997 11.7306 2.99146 9.88565 2.99146ZM5.12589 10.096C5.12589 8.80681 5.62736 7.57039 6.51999 6.65877C7.41262 5.74715 8.62328 5.23501 9.88565 5.23501C11.148 5.23501 12.3587 5.74715 13.2513 6.65877C14.1439 7.57039 14.6454 8.80681 14.6454 10.096V14.9571H9.88565C8.62328 14.9571 7.41262 14.4449 6.51999 13.5333C5.62736 12.6217 5.12589 11.3853 5.12589 10.096ZM9.88565 32.9055C8.04065 32.9055 6.27122 32.157 4.96661 30.8246C3.662 29.4922 2.92908 27.6852 2.92908 25.8009C2.92908 23.9167 3.662 22.1096 4.96661 20.7772C6.27122 19.4448 8.04065 18.6963 9.88565 18.6963H15.7438C16.0351 18.6963 16.3145 18.8145 16.5205 19.0249C16.7265 19.2353 16.8422 19.5206 16.8422 19.8181V25.8009C16.8422 26.7339 16.6623 27.6578 16.3127 28.5197C15.9631 29.3817 15.4507 30.1649 14.8047 30.8246C14.1587 31.4843 13.3918 32.0077 12.5478 32.3647C11.7038 32.7217 10.7992 32.9055 9.88565 32.9055ZM5.12589 25.8009C5.12589 27.0901 5.62736 28.3266 6.51999 29.2382C7.41262 30.1498 8.62328 30.6619 9.88565 30.6619C11.148 30.6619 12.3587 30.1498 13.2513 29.2382C14.1439 28.3266 14.6454 27.0901 14.6454 25.8009V20.9399H9.88565C8.62328 20.9399 7.41262 21.452 6.51999 22.3636C5.62736 23.2753 5.12589 24.5117 5.12589 25.8009ZM32.2199 10.096C32.2199 8.21179 31.487 6.40471 30.1824 5.07234C28.8778 3.73997 27.1083 2.99146 25.2633 2.99146C23.4183 2.99146 21.6489 3.73997 20.3443 5.07234C19.0397 6.40471 18.3068 8.21179 18.3068 10.096V16.0788C18.3068 16.6981 18.7989 17.2006 19.4052 17.2006H25.2633C26.1769 17.2006 27.0815 17.0169 27.9255 16.6598C28.7695 16.3028 29.5364 15.7795 30.1824 15.1197C30.8284 14.46 31.3408 13.6768 31.6904 12.8148C32.04 11.9529 32.2199 11.029 32.2199 10.096ZM25.2633 5.23501C26.5257 5.23501 27.7364 5.74715 28.629 6.65877C29.5216 7.57039 30.0231 8.80681 30.0231 10.096C30.0231 11.3853 29.5216 12.6217 28.629 13.5333C27.7364 14.4449 26.5257 14.9571 25.2633 14.9571H20.5036V10.096C20.5036 8.80681 21.0051 7.57039 21.8977 6.65877C22.7903 5.74715 24.001 5.23501 25.2633 5.23501ZM25.2633 32.9055C27.1083 32.9055 28.8778 32.157 30.1824 30.8246C31.487 29.4922 32.2199 27.6852 32.2199 25.8009C32.2199 23.9167 31.487 22.1096 30.1824 20.7772C28.8778 19.4448 27.1083 18.6963 25.2633 18.6963H19.4052C19.1139 18.6963 18.8345 18.8145 18.6285 19.0249C18.4225 19.2353 18.3068 19.5206 18.3068 19.8181V25.8009C18.3068 26.7339 18.4867 27.6578 18.8363 28.5197C19.1859 29.3817 19.6983 30.1649 20.3443 30.8246C21.6489 32.157 23.4183 32.9055 25.2633 32.9055ZM30.0231 25.8009C30.0231 27.0901 29.5216 28.3266 28.629 29.2382C27.7364 30.1498 26.5257 30.6619 25.2633 30.6619C24.001 30.6619 22.7903 30.1498 21.8977 29.2382C21.0051 28.3266 20.5036 27.0901 20.5036 25.8009V20.9399H25.2633C26.5257 20.9399 27.7364 21.452 28.629 22.3636C29.5216 23.2753 30.0231 24.5117 30.0231 25.8009Z" fill="white"/>
</svg>
