<svg width="34" height="34" viewBox="0 0 34 34" fill="none" xmlns="http://www.w3.org/2000/svg">
<path d="M9.91667 16.9997H17V24.083M4.26417 16.9997H4.25M11.3475 24.083H11.3333M17.0142 29.7497H17M29.7642 16.9997H29.75M4.25 24.083H6.375M21.9583 16.9997H24.7917M4.25 29.7497H11.3333M17 2.83301V11.333M24.9333 29.7497H27.4833C28.2767 29.7497 28.6734 29.7497 28.9765 29.5953C29.2431 29.4594 29.4598 29.2427 29.5956 28.9762C29.75 28.6731 29.75 28.2764 29.75 27.483V24.933C29.75 24.1396 29.75 23.7429 29.5956 23.4399C29.4598 23.1733 29.2431 22.9566 28.9765 22.8207C28.6734 22.6663 28.2767 22.6663 27.4833 22.6663H24.9333C24.1399 22.6663 23.7432 22.6663 23.4402 22.8207C23.1736 22.9566 22.9569 23.1733 22.8211 23.4399C22.6667 23.7429 22.6667 24.1396 22.6667 24.933V27.483C22.6667 28.2764 22.6667 28.6731 22.8211 28.9762C22.9569 29.2427 23.1736 29.4594 23.4402 29.5953C23.7432 29.7497 24.1399 29.7497 24.9333 29.7497ZM24.9333 11.333H27.4833C28.2767 11.333 28.6734 11.333 28.9765 11.1786C29.2431 11.0428 29.4598 10.8261 29.5956 10.5595C29.75 10.2565 29.75 9.85975 29.75 9.06634V6.51634C29.75 5.72293 29.75 5.32623 29.5956 5.02319C29.4598 4.75663 29.2431 4.5399 28.9765 4.40408C28.6734 4.24967 28.2767 4.24967 27.4833 4.24967H24.9333C24.1399 4.24967 23.7432 4.24967 23.4402 4.40408C23.1736 4.5399 22.9569 4.75663 22.8211 5.02319C22.6667 5.32623 22.6667 5.72293 22.6667 6.51634V9.06634C22.6667 9.85975 22.6667 10.2565 22.8211 10.5595C22.9569 10.8261 23.1736 11.0428 23.4402 11.1786C23.7432 11.333 24.1399 11.333 24.9333 11.333ZM6.51667 11.333H9.06667C9.86007 11.333 10.2568 11.333 10.5598 11.1786C10.8264 11.0428 11.0431 10.8261 11.1789 10.5595C11.3333 10.2565 11.3333 9.85975 11.3333 9.06634V6.51634C11.3333 5.72293 11.3333 5.32623 11.1789 5.02319C11.0431 4.75663 10.8264 4.5399 10.5598 4.40408C10.2568 4.24967 9.86007 4.24967 9.06667 4.24967H6.51667C5.72326 4.24967 5.32656 4.24967 5.02351 4.40408C4.75695 4.5399 4.54023 4.75663 4.40441 5.02319C4.25 5.32623 4.25 5.72293 4.25 6.51634V9.06634C4.25 9.85975 4.25 10.2565 4.40441 10.5595C4.54023 10.8261 4.75695 11.0428 5.02351 11.1786C5.32656 11.333 5.72326 11.333 6.51667 11.333Z" stroke="white" stroke-width="2.5" stroke-linecap="round" stroke-linejoin="round"/>
</svg>
