<svg width="31" height="30" viewBox="0 0 31 30" fill="none" xmlns="http://www.w3.org/2000/svg">
<path fill-rule="evenodd" clip-rule="evenodd" d="M16.9382 1.36364C16.9382 0.610521 17.5488 0 18.3019 0H21.029C21.7821 0 22.3927 0.610521 22.3927 1.36364C22.3927 2.11675 21.7821 2.72727 21.029 2.72727H18.3019C17.5488 2.72727 16.9382 2.11675 16.9382 1.36364ZM14.8926 1.34897C14.9028 2.10202 14.3006 2.72075 13.5475 2.73096C12.6014 2.74378 12.3556 2.81098 12.2282 2.8759C11.9716 3.00664 11.763 3.21525 11.6322 3.47183C11.5673 3.59925 11.5001 3.84502 11.4873 4.79121C11.4771 5.54425 10.8584 6.14644 10.1053 6.13624C9.35227 6.12603 8.75008 5.5073 8.76028 4.75425C8.77241 3.85939 8.8118 2.99993 9.20223 2.23368C9.59444 1.46392 10.2203 0.838092 10.99 0.445882C11.7563 0.0554543 12.6157 0.0160645 13.5106 0.00393748C14.2636 -0.00626759 14.8824 0.595924 14.8926 1.34897ZM24.4383 1.34897C24.4485 0.595924 25.0672 -0.00626759 25.8203 0.00393748C26.7151 0.0160645 27.5746 0.0554543 28.3409 0.445883C29.1106 0.838092 29.7364 1.46392 30.1286 2.23368C30.5191 2.99993 30.5585 3.85938 30.5706 4.75423C30.5808 5.50728 29.9786 6.12602 29.2256 6.13622C28.4725 6.14643 27.8538 5.54424 27.8436 4.79119C27.8307 3.84502 27.7635 3.59924 27.6986 3.47183C27.5679 3.21524 27.3593 3.00664 27.1027 2.8759C26.9753 2.81098 26.7295 2.74378 25.7833 2.73096C25.0303 2.72075 24.4281 2.10202 24.4383 1.34897ZM29.2109 8.18181C29.964 8.18181 30.5745 8.79233 30.5745 9.54545V12.2727C30.5745 13.0258 29.964 13.6364 29.2109 13.6364C28.4578 13.6364 27.8473 13.0258 27.8473 12.2727V9.54545C27.8473 8.79233 28.4578 8.18181 29.2109 8.18181ZM6.24924 8.18182H16.718C17.4368 8.18179 18.057 8.18177 18.5677 8.2235C19.1069 8.26755 19.6431 8.3648 20.159 8.6277C20.9288 9.01991 21.5546 9.64574 21.9468 10.4155C22.2097 10.9315 22.307 11.4677 22.351 12.0068C22.3928 12.5176 22.3927 13.1377 22.3927 13.8566V24.3253C22.3927 25.0441 22.3928 25.6642 22.351 26.175C22.307 26.7141 22.2097 27.2504 21.9468 27.7663C21.5546 28.5361 20.9288 29.1619 20.159 29.5541C19.6431 29.817 19.1069 29.9143 18.5677 29.9583C18.057 30 17.4369 30 16.718 30H6.24921C5.53038 30 4.91026 30 4.39949 29.9583C3.86038 29.9143 3.32417 29.817 2.8082 29.5541C2.03845 29.1619 1.41262 28.5361 1.02041 27.7663C0.757508 27.2504 0.660259 26.7141 0.616212 26.175C0.57448 25.6643 0.574501 25.0441 0.574525 24.3253V13.8565C0.574501 13.1377 0.57448 12.5176 0.616212 12.0068C0.660259 11.4677 0.757508 10.9315 1.02041 10.4155C1.41262 9.64574 2.03845 9.01991 2.8082 8.6277C3.32417 8.3648 3.86038 8.26755 4.39949 8.2235C4.91027 8.18177 5.5304 8.18179 6.24924 8.18182ZM4.62158 10.9417C4.25113 10.972 4.11378 11.0234 4.04636 11.0577C3.78977 11.1885 3.58116 11.3971 3.45043 11.6536C3.41607 11.7211 3.36469 11.8584 3.33443 12.2289C3.30286 12.6152 3.3018 13.1229 3.3018 13.9091V24.2727C3.3018 25.0589 3.30286 25.5666 3.33443 25.953C3.36469 26.3234 3.41607 26.4607 3.45043 26.5282C3.58116 26.7848 3.78977 26.9934 4.04636 27.1241C4.11378 27.1585 4.25113 27.2098 4.62157 27.2401C5.00794 27.2717 5.51559 27.2727 6.3018 27.2727H16.6654C17.4516 27.2727 17.9593 27.2717 18.3457 27.2401C18.7161 27.2098 18.8535 27.1585 18.9209 27.1241C19.1775 26.9934 19.3861 26.7848 19.5168 26.5282C19.5512 26.4607 19.6025 26.3234 19.6328 25.953C19.6644 25.5666 19.6654 25.0589 19.6654 24.2727V13.9091C19.6654 13.1229 19.6644 12.6152 19.6328 12.2289C19.6025 11.8584 19.5512 11.7211 19.5168 11.6536C19.3861 11.3971 19.1775 11.1885 18.9209 11.0577C18.8535 11.0234 18.7161 10.972 18.3457 10.9417C17.9593 10.9102 17.4516 10.9091 16.6654 10.9091H6.3018C5.51559 10.9091 5.00794 10.9102 4.62158 10.9417ZM29.2256 15.6819C29.9786 15.6921 30.5808 16.3109 30.5706 17.0639C30.5585 17.9588 30.5191 18.8182 30.1286 19.5845C29.7364 20.3543 29.1106 20.9801 28.3408 21.3723C27.5746 21.7627 26.7151 21.8021 25.8203 21.8142C25.0672 21.8244 24.4485 21.2223 24.4383 20.4692C24.4281 19.7162 25.0303 19.0974 25.7833 19.0872C26.7295 19.0744 26.9753 19.0072 27.1027 18.9423C27.3593 18.8115 27.5679 18.6029 27.6986 18.3463C27.7635 18.2189 27.8307 17.9732 27.8436 17.027C27.8538 16.2739 28.4725 15.6717 29.2256 15.6819Z" fill="white"/>
</svg>
