<svg width="34" height="34" viewBox="0 0 34 34" fill="none" xmlns="http://www.w3.org/2000/svg">
<path d="M16.9998 21.25L12.7498 17M16.9998 21.25C18.9787 20.4974 20.8771 19.5482 22.6665 18.4167M16.9998 21.25V28.3334C16.9998 28.3334 21.2923 27.5542 22.6665 25.5C24.1965 23.205 22.6665 18.4167 22.6665 18.4167M12.7498 17C13.5037 15.0442 14.453 13.1694 15.5832 11.4042C17.2338 8.76492 19.5323 6.59185 22.2599 5.09166C24.9875 3.59147 28.0536 2.81405 31.1665 2.83336C31.1665 6.68669 30.0615 13.4584 22.6665 18.4167M12.7498 17H5.6665C5.6665 17 6.44567 12.7075 8.49984 11.3334C10.7948 9.80336 15.5832 11.3334 15.5832 11.3334M6.37484 23.375C4.24984 25.16 3.5415 30.4584 3.5415 30.4584C3.5415 30.4584 8.83984 29.75 10.6248 27.625C11.6307 26.435 11.6165 24.6075 10.4973 23.5025C9.94669 22.977 9.22134 22.6733 8.46049 22.6497C7.69965 22.6262 6.95691 22.8845 6.37484 23.375Z" stroke="white" stroke-width="2.5" stroke-linecap="round" stroke-linejoin="round"/>
</svg>
