<svg width="28" height="28" viewBox="0 0 28 28" fill="none" xmlns="http://www.w3.org/2000/svg">
<path fill-rule="evenodd" clip-rule="evenodd" d="M6.04813 0.896974H21.1008C21.7569 0.896955 22.323 0.896939 22.7916 0.928907C23.2849 0.962567 23.7783 1.03661 24.2658 1.23854C25.3653 1.69395 26.2388 2.56747 26.6942 3.66694C26.8962 4.15443 26.9702 4.64788 27.0039 5.1412C27.0358 5.60974 27.0358 6.17585 27.0358 6.83193V6.87978C27.0358 7.70584 26.3661 8.37548 25.5401 8.37548C24.714 8.37548 24.0444 7.70584 24.0444 6.87978C24.0444 6.16241 24.0436 5.69928 24.0194 5.34483C23.9961 5.00381 23.9563 4.87394 23.9305 4.8117C23.7787 4.44521 23.4876 4.15404 23.1211 4.00223C23.0588 3.97645 22.929 3.93664 22.5879 3.91337C22.2335 3.88919 21.7704 3.88838 21.053 3.88838H15.0702V24.8282H18.0616C18.8876 24.8282 19.5573 25.4979 19.5573 26.3239C19.5573 27.15 18.8876 27.8196 18.0616 27.8196H9.08737C8.26132 27.8196 7.59167 27.15 7.59167 26.3239C7.59167 25.4979 8.26132 24.8282 9.08737 24.8282H12.0788V3.88838H6.09597C5.37859 3.88838 4.91547 3.88919 4.56102 3.91337C4.22 3.93664 4.09013 3.97645 4.02789 4.00223C3.6614 4.15404 3.37022 4.44521 3.21842 4.8117C3.19264 4.87394 3.15283 5.00382 3.12956 5.34483C3.10537 5.69928 3.10456 6.16241 3.10456 6.87978C3.10456 7.70584 2.43492 8.37548 1.60886 8.37548C0.78281 8.37548 0.113161 7.70584 0.113161 6.87978L0.11316 6.83194C0.113142 6.17585 0.113125 5.60975 0.145094 5.1412C0.178753 4.64788 0.252796 4.15443 0.454722 3.66694C0.910136 2.56747 1.78366 1.69395 2.88313 1.23854C3.37062 1.03661 3.86406 0.962567 4.35739 0.928907C4.82593 0.896939 5.39204 0.896955 6.04813 0.896974Z" fill="white"/>
</svg>
