<svg width="66" height="68" viewBox="0 0 66 68" fill="none" xmlns="http://www.w3.org/2000/svg">
<path d="M18 28H18.0333M33 28H33.0333M48 28H48.0333M16.3333 53V60.785C16.3333 62.5612 16.3333 63.4493 16.6974 63.9054C17.0141 64.3021 17.4942 64.5328 18.0018 64.5323C18.5854 64.5317 19.2789 63.9769 20.6659 62.8673L28.6174 56.5061C30.2417 55.2066 31.0539 54.5569 31.9583 54.0948C32.7607 53.6849 33.6148 53.3853 34.4974 53.2042C35.4922 53 36.5323 53 38.6125 53H47C52.6005 53 55.4008 53 57.5399 51.9101C59.4215 50.9513 60.9513 49.4215 61.9101 47.5399C63 45.4008 63 42.6005 63 37V19C63 13.3995 63 10.5992 61.9101 8.4601C60.9513 6.57847 59.4215 5.04867 57.5399 4.08993C55.4008 3 52.6005 3 47 3H19C13.3995 3 10.5992 3 8.46009 4.08993C6.57847 5.04867 5.04867 6.57847 4.08993 8.4601C3 10.5992 3 13.3995 3 19V39.6667C3 42.7666 3 44.3165 3.34074 45.5882C4.26541 49.0391 6.96089 51.7346 10.4118 52.6593C11.6835 53 13.2334 53 16.3333 53ZM19.6667 28C19.6667 28.9205 18.9205 29.6667 18 29.6667C17.0795 29.6667 16.3333 28.9205 16.3333 28C16.3333 27.0795 17.0795 26.3333 18 26.3333C18.9205 26.3333 19.6667 27.0795 19.6667 28ZM34.6667 28C34.6667 28.9205 33.9205 29.6667 33 29.6667C32.0795 29.6667 31.3333 28.9205 31.3333 28C31.3333 27.0795 32.0795 26.3333 33 26.3333C33.9205 26.3333 34.6667 27.0795 34.6667 28ZM49.6667 28C49.6667 28.9205 48.9205 29.6667 48 29.6667C47.0795 29.6667 46.3333 28.9205 46.3333 28C46.3333 27.0795 47.0795 26.3333 48 26.3333C48.9205 26.3333 49.6667 27.0795 49.6667 28Z" stroke="#D2D2D2" stroke-width="6" stroke-linecap="round" stroke-linejoin="round"/>
</svg>
