<svg width="24" height="24" viewBox="0 0 24 24" fill="none" xmlns="http://www.w3.org/2000/svg">
<circle cx="12" cy="12" r="12" fill="white"/>
<path fill-rule="evenodd" clip-rule="evenodd" d="M15.8792 9.62643C15.741 8.37121 14.6502 7.96461 13.2787 7.86326L13.2549 6.11976L12.1934 6.1344L12.2166 7.83195C11.9379 7.83571 11.6528 7.8451 11.3695 7.85462L11.3464 6.14583L10.2857 6.16025L10.3091 7.90325C10.0794 7.91108 9.85377 7.91842 9.63375 7.92156L9.63354 7.91615L8.16981 7.93559L8.18553 9.06904C8.18553 9.06904 8.96902 9.04343 8.95619 9.05804C9.38605 9.05231 9.52964 9.29988 9.57299 9.51475L9.60014 11.501C9.6298 11.5007 9.66851 11.5014 9.71241 11.5068L9.60059 11.5084L9.63794 14.291C9.62092 14.4265 9.54434 14.6433 9.24401 14.6479C9.25776 14.6598 8.47256 14.6582 8.47256 14.6582L8.27904 15.9288L9.66039 15.9098C9.81637 15.9079 9.97084 15.9075 10.1236 15.9071L10.1237 15.9071L10.1238 15.9071C10.2227 15.9068 10.3209 15.9065 10.4183 15.9058L10.4429 17.6695L11.503 17.6552L11.4795 15.9104C11.7704 15.9125 12.0521 15.911 12.3271 15.907L12.3503 17.6437L13.4115 17.6291L13.3879 15.8689C15.1707 15.7422 16.4136 15.2757 16.5453 13.5985C16.6521 12.2477 16.0096 11.6543 14.9934 11.4246C15.6043 11.1023 15.9815 10.545 15.879 9.62651L15.8792 9.62643ZM14.4449 13.417C14.4617 14.6266 12.5609 14.6258 11.692 14.6254C11.6142 14.6254 11.5447 14.6254 11.4855 14.6262L11.454 12.2899C11.5263 12.2889 11.6141 12.2856 11.7135 12.2819L11.7135 12.2819C12.6036 12.2488 14.4277 12.1809 14.4452 13.417L14.4449 13.417ZM11.6142 11.2204C12.3396 11.2224 13.921 11.2267 13.9063 10.1278C13.8911 9.00365 12.3707 9.06477 11.6281 9.09463C11.5447 9.09798 11.471 9.10094 11.4104 9.10178L11.4393 11.2207C11.4892 11.22 11.5482 11.2202 11.6142 11.2204Z" fill="#221A2E"/>
</svg>
