<svg width="60" height="60" viewBox="0 0 60 60" fill="none" xmlns="http://www.w3.org/2000/svg">
<path d="M27.5 45C27.5 46.38 28.62 47.5 30 47.5C31.38 47.5 32.5 46.38 32.5 45V15C32.5 13.62 31.38 12.5 30 12.5C28.62 12.5 27.5 13.62 27.5 15V45ZM2.5 15C1.12 15 0 16.12 0 17.5V42.5C0 43.88 1.12 45 2.5 45C3.88 45 5 43.88 5 42.5V17.5C5 16.12 3.88 15 2.5 15ZM23.75 40V20C23.75 18.62 22.63 17.5 21.25 17.5C19.87 17.5 18.75 18.62 18.75 20V40C18.75 41.38 19.87 42.5 21.25 42.5C22.63 42.5 23.75 41.38 23.75 40ZM12.5 37.5C13.88 37.5 15 36.38 15 35V25C15 23.62 13.88 22.5 12.5 22.5C11.12 22.5 10 23.62 10 25V35C10 36.38 11.12 37.5 12.5 37.5ZM41.25 40V20C41.25 18.62 40.13 17.5 38.75 17.5C37.37 17.5 36.25 18.62 36.25 20V40C36.25 41.38 37.37 42.5 38.75 42.5C40.13 42.5 41.25 41.38 41.25 40ZM57.5 15C56.12 15 55 16.12 55 17.5V42.5C55 43.88 56.12 45 57.5 45C58.88 45 60 43.88 60 42.5V17.5C60 16.12 58.88 15 57.5 15ZM47.5 22.5C46.12 22.5 45 23.62 45 25V35C45 36.38 46.12 37.5 47.5 37.5C48.88 37.5 50 36.38 50 35V25C50 23.62 48.88 22.5 47.5 22.5ZM27.5 57.5C27.5 58.88 28.62 60 30 60C31.38 60 32.5 58.88 32.5 57.5V55C32.5 53.62 31.38 52.5 30 52.5C28.62 52.5 27.5 53.62 27.5 55V57.5ZM30 7.5C31.38 7.5 32.5 6.38 32.5 5V2.5C32.5 1.12 31.38 0 30 0C28.62 0 27.5 1.12 27.5 2.5V5C27.5 6.38 28.62 7.5 30 7.5Z" fill="#EE1282"/>
</svg>
