<svg width="60" height="60" viewBox="0 0 60 60" fill="none" xmlns="http://www.w3.org/2000/svg">
<path d="M58.2422 4.92188H1.75781C0.786914 4.92188 0 5.70879 0 6.67969V53.2553C0 54.2262 0.786914 55.0131 1.75781 55.0131H58.2422C59.2131 55.0131 60 54.2262 60 53.2553V6.67969C60 5.70879 59.2131 4.92188 58.2422 4.92188ZM18.933 48.4369V51.4975H13.0348V48.4369H18.933ZM22.4487 48.4369H28.3471V51.4975H22.4487V48.4369ZM31.8627 48.4369H37.7613V51.4975H31.8627V48.4369ZM41.277 48.4369H47.1754V51.4975H41.277V48.4369ZM3.51562 44.9212V15.0138H56.4844V44.9212H3.51562ZM41.277 11.4982V8.4375H47.1754V11.4981L41.277 11.4982ZM37.7613 11.4982H31.8627V8.4375H37.7613V11.4982ZM28.3471 11.4982H22.4488V8.4375H28.3471V11.4982ZM18.9332 11.4982H13.0348V8.4375H18.9332V11.4982ZM56.4844 11.4982H50.6909V8.4375H56.4844V11.4982ZM9.51914 8.4375V11.4981H3.51562V8.4375H9.51914ZM3.51562 48.4369H9.51914V51.4975H3.51562V48.4369ZM50.691 51.4975V48.4369H56.4844V51.4975H50.691Z" fill="#EE1282"/>
<path d="M36.5011 28.1569C36.4532 28.1219 36.4035 28.0895 36.3522 28.0597L26.2943 22.1885C25.5655 21.7119 24.6079 21.6579 23.8204 22.0589C23.045 22.4531 22.5635 23.2226 22.5635 24.0667V35.8692C22.5635 36.7133 23.0451 37.4824 23.8205 37.877C24.1689 38.0536 24.5541 38.1453 24.9447 38.1448C25.4195 38.1448 25.8918 38.0106 26.2943 37.7469L36.3522 31.8762C36.4036 31.8464 36.4534 31.814 36.5011 31.7791C37.0957 31.3456 37.4371 30.686 37.4371 29.9683C37.4371 29.2505 37.0957 28.5899 36.5011 28.1569ZM26.0796 33.8015V26.1339L32.6476 29.9678L26.0796 33.8015Z" fill="#EE1282"/>
</svg>
