<svg width="18" height="18" viewBox="0 0 18 18" fill="none" xmlns="http://www.w3.org/2000/svg">
<path d="M9 1.00002L11.0355 1.00002C12.0963 1.00002 13.1137 1.42144 13.8639 2.17159L15.8284 4.13612C16.5786 4.88627 17 5.90368 17 6.96455L17 9.00002L17 11.0355C17 12.0963 16.5786 13.1137 15.8284 13.8639L13.8639 15.8284C13.1137 16.5786 12.0963 17 11.0355 17L9 17L6.96455 17C5.90368 17 4.88626 16.5786 4.13612 15.8284L2.17157 13.8639C1.42143 13.1137 1 12.0963 1 11.0355L1 9L1 6.96455C1 5.90368 1.42143 4.88626 2.17158 4.13612L4.13612 2.17158C4.88627 1.42144 5.90368 1.00002 6.96454 1.00002L9 1.00002Z" stroke="#220150" stroke-width="1.3" stroke-linecap="round" stroke-linejoin="round"/>
<path d="M7.40314 6.8087C7.40314 5.80978 8.22764 5 9.24472 5C10.2618 5 11.0863 5.80978 11.0863 6.8087C11.0863 7.3063 10.8817 7.75698 10.5506 8.084C9.98206 8.64556 9.24472 9.26522 9.24472 10.0644" stroke="#220150" stroke-width="1.3" stroke-linecap="round" stroke-linejoin="round"/>
<path d="M9.2446 12.7053V12.9355" stroke="#220150" stroke-width="1.3" stroke-linecap="round" stroke-linejoin="round"/>
</svg>
