<svg width="60" height="60" viewBox="0 0 60 60" fill="none" xmlns="http://www.w3.org/2000/svg">
<path d="M59.2127 20.1677L54.5765 16.7763C53.7206 16.1513 52.5205 16.3375 51.8933 17.1923C51.2672 18.0483 51.4534 19.2494 52.3094 19.8755L56.1594 22.6908V56.1607H3.84064V22.6907L8.52266 19.2661C9.37753 18.6399 9.56468 17.4388 8.93867 16.5829C8.31161 15.7269 7.1114 15.5398 6.25548 16.1669L0.786197 20.1677C0.542522 20.3459 0.344331 20.5792 0.207725 20.8484C0.071119 21.1176 -4.98576e-05 21.4153 2.62053e-08 21.7172V58.0803C2.62053e-08 59.14 0.860024 59.9991 1.91985 59.9991H58.0791C59.1388 59.9991 59.9989 59.1402 60 58.0803V21.7172C60 21.4152 59.9287 21.1175 59.7919 20.8482C59.6551 20.579 59.4566 20.3458 59.2127 20.1677Z" fill="#EE1282"/>
<path d="M54.0034 25.4539C53.395 24.5845 52.1979 24.3712 51.3285 24.9828L30.0004 39.918L8.67031 24.9828C7.80302 24.3723 6.60492 24.5855 5.99649 25.4539C5.38806 26.3222 5.59923 27.5192 6.46758 28.1266L28.8991 43.8336C29.2217 44.06 29.6063 44.1813 30.0004 44.1809C30.3863 44.1809 30.771 44.0655 31.1017 43.8336L53.5322 28.1266C54.3997 27.5194 54.6108 26.3223 54.0034 25.4539ZM53.4574 51.5346L40.9557 41.2669C40.1362 40.595 38.9267 40.7126 38.2528 41.532C37.581 42.3515 37.6986 43.562 38.518 44.2349L51.0208 54.5027C51.3635 54.7848 51.7936 54.9389 52.2375 54.9385C52.7918 54.9385 53.342 54.7004 53.7226 54.2375C54.3955 53.418 54.2769 52.2075 53.4574 51.5346ZM19.0463 41.2669L6.54457 51.5346C5.72509 52.2086 5.6065 53.418 6.27938 54.2375C6.65894 54.7003 7.21018 54.9385 7.76447 54.9385C8.1929 54.9385 8.62449 54.796 8.98226 54.5027L21.484 44.2349C22.3034 43.561 22.422 42.3515 21.7491 41.532C21.0753 40.7126 19.8669 40.595 19.0463 41.2669Z" fill="#EE1282"/>
<path d="M46.3721 13.3235C44.603 12.9564 42.7051 13.2164 41.1253 14.6651C40.257 15.4815 39.4051 16.9926 39.8888 19.6799C38.1302 19.681 36.1282 20.1104 34.9582 21.7672C34.2821 22.7334 33.7549 24.3297 34.6503 26.705C32.8917 27.0618 31.2443 28.0373 30.3864 29.9852C29.96 30.9555 30.3999 32.0891 31.3702 32.5154C31.6137 32.6228 31.8768 32.6784 32.1429 32.6787C32.8813 32.6787 33.5854 32.2503 33.9015 31.5316C34.5276 30.1141 36.6409 30.3554 37.2815 30.4635C37.5415 30.5676 37.7869 30.5779 38.0408 30.5706C39.0964 30.5353 39.9252 29.6524 39.8951 28.5957C39.8889 28.3649 39.8213 27.7918 39.3605 27.3259C38.6127 26.4315 37.7235 24.5138 38.1 23.9751C38.54 23.3542 40.776 23.4592 41.9044 23.7547C42.0302 23.8035 42.1654 23.841 42.3099 23.868C42.962 23.9834 43.6328 23.7609 44.079 23.27C44.2988 23.0281 44.4533 22.7341 44.528 22.4158C44.6026 22.0975 44.5948 21.7655 44.5054 21.451C44.441 21.2274 44.3535 21.0392 44.2454 20.8801C43.7504 19.8307 43.3333 17.8579 43.7368 17.4794C44.9234 16.3937 46.8744 17.5314 47.3289 17.8226C47.4984 17.9756 47.6971 18.0899 47.931 18.1793C48.425 18.3675 48.9761 18.3457 49.4504 18.1149C49.6862 18.0017 49.8963 17.8415 50.0679 17.644C50.2394 17.4465 50.3687 17.216 50.4478 16.9667C50.5621 16.6068 50.6069 16.1555 50.4072 15.6865C50.1264 14.6662 50.0443 12.5603 50.6683 12.1744C51.364 11.7543 53.3765 12.6777 54.3083 13.387C54.3873 13.463 54.4747 13.5347 54.5725 13.6023C54.8477 13.7959 55.1689 13.9138 55.5041 13.9441C55.8392 13.9744 56.1764 13.9161 56.4819 13.7749C56.7871 13.6334 57.0501 13.4145 57.2446 13.14C57.439 12.8654 57.5583 12.5447 57.5904 12.2098C57.606 12.0278 57.6009 11.8593 57.577 11.7044C57.5593 10.627 57.9774 8.54283 58.6503 8.29533C59.6455 7.9303 60.1552 6.82583 59.7901 5.83057C59.4251 4.83532 58.3175 4.32462 57.3264 4.69176C55.7311 5.27828 54.6266 6.72083 54.0889 8.89638C52.4635 8.21623 50.4137 7.82519 48.6519 8.90681C47.2799 9.75523 46.4947 11.2945 46.3721 13.3235ZM2.32122 9.84159C3.00242 10.0787 3.46214 12.166 3.46519 13.2434C3.44132 13.4236 3.44239 13.6063 3.46835 13.7863C3.51261 14.1127 3.64014 14.4222 3.83867 14.685C4.0372 14.9478 4.30004 15.1551 4.60189 15.287C4.90386 15.4185 5.23452 15.4703 5.56226 15.4376C5.88999 15.4048 6.20384 15.2885 6.47381 15.0998C6.57407 15.0294 6.66833 14.9507 6.75564 14.8647C7.67191 14.1388 9.67801 13.1695 10.3737 13.5783C11.0091 13.9568 10.9707 16.0629 10.7106 17.0882C10.5016 17.6103 10.5931 18.0939 10.7055 18.4059C10.7915 18.6444 10.9238 18.8635 11.0948 19.0508C11.2658 19.238 11.4721 19.3896 11.7018 19.4969C11.9316 19.6037 12.1803 19.6641 12.4335 19.6746C12.6868 19.6851 12.9396 19.6456 13.1775 19.5583C13.4448 19.4595 13.6611 19.3295 13.8389 19.1621C14.3089 18.8438 16.1976 17.6936 17.3926 18.7513C17.822 19.1392 17.4414 21.1267 16.9651 22.1843C16.8652 22.3402 16.7831 22.5222 16.7248 22.7366C16.6376 23.0549 16.6338 23.3903 16.7137 23.7105C16.7937 24.0307 16.9548 24.325 17.1814 24.5649C17.6431 25.0516 18.3243 25.2679 18.9816 25.1223C19.123 25.0922 19.2562 25.0537 19.3831 25.0007C20.5114 24.6907 22.7215 24.5493 23.1665 25.1567C23.5441 25.6766 22.7661 27.4956 21.8728 28.651C21.2197 29.4861 21.3674 30.6925 22.2024 31.3456C22.554 31.6212 22.9709 31.7543 23.3839 31.7533C23.9548 31.7533 24.5195 31.5005 24.8991 31.0149C25.2839 30.5208 28.6015 26.0999 26.2667 22.8895C25.0686 21.2587 23.0562 20.8604 21.2996 20.8979C21.7344 18.1981 20.8503 16.6995 19.9518 15.8873C18.3523 14.475 16.4574 14.2482 14.6999 14.6487C14.5386 12.627 13.7254 11.1054 12.3318 10.2755C10.5523 9.2252 8.52127 9.64636 6.89579 10.3639C6.31479 8.21823 5.16766 6.76641 3.58589 6.21517C2.58337 5.86467 1.49026 6.39505 1.14081 7.39558C0.791485 8.39705 1.31976 9.49215 2.32122 9.84159ZM23.9437 9.28731C24.2276 9.34871 24.4907 9.3684 24.7642 9.30395C25.3944 9.28942 27.5326 9.34145 27.904 10.735C28.0319 11.2373 26.5458 12.7953 25.4808 13.4432C25.458 13.4536 25.435 13.4639 25.4132 13.4765C25.0889 13.6483 24.8206 13.9095 24.6402 14.2291C24.4597 14.5487 24.3747 14.9134 24.3951 15.2798C24.4157 15.6464 24.5408 15.9994 24.7557 16.297C24.9706 16.5947 25.2663 16.8246 25.6077 16.9594C25.6316 16.9678 25.6545 16.9771 25.6775 16.9855C26.3337 17.2891 28.0996 18.3978 28.4469 19.5449C28.529 19.8152 28.5738 20.2043 28.1817 20.8126C27.6076 21.7039 27.8645 22.8916 28.7558 23.4666C29.065 23.6666 29.4254 23.7731 29.7937 23.7734C30.4239 23.7734 31.0428 23.4635 31.4057 22.8915C32.8773 20.6087 32.5975 18.0763 30.6413 15.9433C30.6298 15.9308 30.2232 15.5045 29.6169 14.9969C31.7957 12.8296 31.9278 10.9867 31.6189 9.76683C31.0812 7.75546 29.6388 6.56579 27.9613 5.96358C29.1989 3.77127 28.9284 2.12704 28.4116 1.07355C27.9436 0.123056 26.7955 -0.267992 25.8419 0.195828C24.8903 0.663866 24.4982 1.81404 24.9652 2.76559C25.2398 3.32515 24.1061 5.04941 23.2294 5.84288C22.8343 6.1008 22.5784 6.48869 22.4682 7.00559C22.4152 7.2523 22.4113 7.50703 22.4568 7.75523C22.5023 8.00343 22.5962 8.24024 22.7332 8.45214C22.8703 8.66403 23.0477 8.84685 23.2554 8.99015C23.4631 9.13345 23.697 9.23442 23.9437 9.28731ZM18.3652 13.1102C19.0551 13.1107 19.717 12.8377 20.2059 12.351C20.6843 11.8622 20.9652 11.1956 20.9652 10.5103C20.9652 9.82285 20.6844 9.15723 20.2059 8.66845C19.2388 7.70132 17.4916 7.70132 16.5243 8.66845C16.046 9.15723 15.7651 9.8239 15.7651 10.5103C15.7651 11.1966 16.0459 11.8622 16.5243 12.351C17.0131 12.8388 17.6787 13.1102 18.3652 13.1102Z" fill="#EE1282"/>
<path d="M50.3647 24.3948C50.842 23.9164 51.1229 23.2393 51.1229 22.554C51.1229 21.877 50.8432 21.201 50.3647 20.7122C49.3965 19.7554 47.6504 19.7554 46.6831 20.7122C46.2058 21.201 45.9239 21.8781 45.9239 22.554C45.9239 23.2404 46.2046 23.9164 46.6831 24.3948C47.1615 24.8825 47.8375 25.154 48.5239 25.154C49.2102 25.154 49.8769 24.8825 50.3647 24.3948ZM37.6134 16.7509C38.0918 16.261 38.3727 15.5965 38.3727 14.9091C38.3727 14.2217 38.0929 13.5467 37.6134 13.0683C36.6462 12.1001 34.9001 12.1001 33.9329 13.0683C33.4545 13.5467 33.1736 14.2217 33.1736 14.9091C33.1736 15.5965 33.4533 16.261 33.9329 16.7509C34.4216 17.2282 35.0873 17.5091 35.7736 17.5091C36.4611 17.5089 37.1266 17.2282 37.6134 16.7509ZM12.6548 7.40029C13.3422 7.40029 14.0078 7.11951 14.4851 6.63073C14.9739 6.15238 15.2547 5.47528 15.2547 4.8003C15.2547 4.11289 14.9739 3.43684 14.4851 2.95849C13.5283 1.99124 11.7812 1.99124 10.8139 2.95849C10.3252 3.43684 10.0547 4.11394 10.0547 4.8003C10.0547 5.47634 10.325 6.15227 10.8139 6.63073C11.2924 7.11846 11.9683 7.40029 12.6548 7.40029ZM14.4851 25.0073C14.9739 24.5289 15.2547 23.8529 15.2547 23.1768C15.2547 22.4905 14.9739 21.8145 14.4851 21.3257C13.518 20.3585 11.7812 20.3689 10.8139 21.3257C10.3252 21.8134 10.0547 22.4905 10.0547 23.1768C10.0547 23.8538 10.325 24.5288 10.8139 25.0073C11.2923 25.495 11.9683 25.7768 12.6547 25.7768C13.3318 25.7768 14.0078 25.4961 14.4851 25.0073ZM33.0219 7.38576H34.6516V9.01229C34.6516 10.0731 35.5116 10.9321 36.5725 10.9321C37.6332 10.9321 38.4923 10.0731 38.4923 9.01229V7.38576H40.1167C41.1775 7.38576 42.0366 6.52667 42.0366 5.46591C42.0366 4.40515 41.1775 3.54606 40.1167 3.54606H38.4923V1.92058C38.4923 0.859819 37.6332 0.000732422 36.5725 0.000732422C35.5117 0.000732422 34.6516 0.859819 34.6516 1.92058V3.54606H33.0219C31.9611 3.54606 31.101 4.40515 31.101 5.46591C31.101 6.52667 31.9611 7.38576 33.0219 7.38576ZM43.8502 10.4257C43.9937 10.4579 44.1362 10.4745 44.2766 10.4745C45.1543 10.4745 45.9458 9.87032 46.1476 8.97901C46.6613 6.7171 48.0768 5.42642 49.176 4.74206C50.0756 4.18156 50.3502 2.99693 49.7896 2.09741C49.2291 1.19778 48.0444 0.923216 47.1449 1.48383C44.7154 2.99705 43.0307 5.35775 42.4026 8.12825C42.1685 9.16311 42.8165 10.1906 43.8502 10.4257Z" fill="#EE1282"/>
</svg>
