<svg width="60" height="60" viewBox="0 0 60 60" fill="none" xmlns="http://www.w3.org/2000/svg">
<path d="M48.75 15.625H46.0875C46.5976 14.6619 46.8678 13.5899 46.875 12.5C46.8766 11.0818 46.4391 9.69779 45.6225 8.5382C44.8059 7.3786 43.6503 6.50028 42.3144 6.02385C40.9786 5.54743 39.528 5.49628 38.1619 5.87743C36.7958 6.25858 35.5812 7.05333 34.685 8.15253C34.6175 8.25003 31.8075 11.975 30 14.38L25.2975 8.13003C24.3983 7.03619 23.1829 6.24706 21.8179 5.87069C20.4528 5.49432 19.0047 5.54911 17.672 6.02757C16.3393 6.50602 15.1871 7.38475 14.3731 8.54341C13.5591 9.70207 13.1232 11.084 13.125 12.5C13.1322 13.5899 13.4024 14.6619 13.9125 15.625H11.25C9.75877 15.627 8.32918 16.2203 7.27472 17.2747C6.22025 18.3292 5.62698 19.7588 5.625 21.25V30C5.625 30.4973 5.82254 30.9742 6.17417 31.3258C6.52581 31.6775 7.00272 31.875 7.5 31.875H8.125V45C7.97819 46.2667 8.11969 47.5501 8.53892 48.7544C8.95815 49.9586 9.64425 51.0525 10.5459 51.9541C11.4476 52.8558 12.5414 53.5419 13.7457 53.9611C14.9499 54.3803 16.2334 54.5218 17.5 54.375H42.5C43.7666 54.5218 45.0501 54.3803 46.2543 53.9611C47.4586 53.5419 48.5524 52.8558 49.4541 51.9541C50.3558 51.0525 51.0419 49.9586 51.4611 48.7544C51.8803 47.5501 52.0218 46.2667 51.875 45V31.875H52.5C52.9973 31.875 53.4742 31.6775 53.8258 31.3258C54.1775 30.9742 54.375 30.4973 54.375 30V21.25C54.373 19.7588 53.7797 18.3292 52.7253 17.2747C51.6708 16.2203 50.2412 15.627 48.75 15.625ZM50.625 21.25V28.125H31.875V19.375H48.75C49.2471 19.3757 49.7236 19.5734 50.0751 19.9249C50.4266 20.2764 50.6243 20.7529 50.625 21.25ZM37.5975 10.5175C37.886 10.1584 38.252 9.86912 38.668 9.67128C39.084 9.47344 39.5393 9.37217 40 9.37503C40.8288 9.37503 41.6237 9.70427 42.2097 10.2903C42.7958 10.8764 43.125 11.6712 43.125 12.5C43.125 13.3288 42.7958 14.1237 42.2097 14.7097C41.6237 15.2958 40.8288 15.625 40 15.625H33.75L37.5975 10.5175ZM16.875 12.5C16.8763 11.6716 17.206 10.8775 17.7918 10.2918C18.3775 9.70601 19.1716 9.37635 20 9.37503C20.4523 9.37043 20.8998 9.46705 21.3099 9.65781C21.72 9.84858 22.0822 10.1287 22.37 10.4775C22.5 10.655 24.5525 13.375 26.25 15.625H20C19.1716 15.6237 18.3775 15.294 17.7918 14.7083C17.206 14.1225 16.8763 13.3284 16.875 12.5ZM9.375 21.25C9.37566 20.7529 9.57342 20.2764 9.92491 19.9249C10.2764 19.5734 10.7529 19.3757 11.25 19.375H28.125V28.125H9.375V21.25ZM11.875 45V31.875H28.125V50.625H17.5C13.5575 50.625 11.875 48.9425 11.875 45ZM48.125 45C48.125 48.9425 46.4425 50.625 42.5 50.625H31.875V31.875H48.125V45Z" fill="#EE1282"/>
</svg>
