<svg width="60" height="60" viewBox="0 0 60 60" fill="none" xmlns="http://www.w3.org/2000/svg">
<path fill-rule="evenodd" clip-rule="evenodd" d="M9.375 3.75C6.29063 3.75 3.75 6.29063 3.75 9.375V35.625C3.75 38.7094 6.29063 41.25 9.375 41.25H11.25V43.125C11.25 46.2094 13.7906 48.75 16.875 48.75H18.75V50.625C18.75 53.7094 21.2906 56.25 24.375 56.25H50.625C53.7094 56.25 56.25 53.7094 56.25 50.625V24.375C56.25 21.2906 53.7094 18.75 50.625 18.75H48.75V16.875C48.75 13.7906 46.2094 11.25 43.125 11.25H41.25V9.375C41.25 6.29063 38.7094 3.75 35.625 3.75H9.375ZM9.375 7.5H35.625C36.6956 7.5 37.5 8.30438 37.5 9.375V11.25H16.875C13.7906 11.25 11.25 13.7906 11.25 16.875V37.5H9.375C8.30438 37.5 7.5 36.6956 7.5 35.625V9.375C7.5 8.30438 8.30438 7.5 9.375 7.5ZM16.875 15H43.125C44.1956 15 45 15.8044 45 16.875V18.75H24.375C21.2906 18.75 18.75 21.2906 18.75 24.375V45H16.875C15.8044 45 15 44.1956 15 43.125V16.875C15 15.8044 15.8044 15 16.875 15ZM24.375 22.5H50.625C51.6956 22.5 52.5 23.3044 52.5 24.375V50.625C52.5 51.6956 51.6956 52.5 50.625 52.5H24.375C23.3044 52.5 22.5 51.6956 22.5 50.625V24.375C22.5 23.3044 23.3044 22.5 24.375 22.5Z" fill="#EE1282"/>
<path fill-rule="evenodd" clip-rule="evenodd" d="M37.5 26.25C37.0027 26.25 36.5258 26.4475 36.1742 26.7992C35.8225 27.1508 35.625 27.6277 35.625 28.125V35.625H28.125C27.6277 35.625 27.1508 35.8225 26.7992 36.1742C26.4475 36.5258 26.25 37.0027 26.25 37.5C26.25 37.9973 26.4475 38.4742 26.7992 38.8258C27.1508 39.1775 27.6277 39.375 28.125 39.375H35.625V46.875C35.625 47.3723 35.8225 47.8492 36.1742 48.2008C36.5258 48.5525 37.0027 48.75 37.5 48.75C37.9973 48.75 38.4742 48.5525 38.8258 48.2008C39.1775 47.8492 39.375 47.3723 39.375 46.875V39.375H46.875C47.3723 39.375 47.8492 39.1775 48.2008 38.8258C48.5525 38.4742 48.75 37.9973 48.75 37.5C48.75 37.0027 48.5525 36.5258 48.2008 36.1742C47.8492 35.8225 47.3723 35.625 46.875 35.625H39.375V28.125C39.375 27.6277 39.1775 27.1508 38.8258 26.7992C38.4742 26.4475 37.9973 26.25 37.5 26.25Z" fill="#EE1282"/>
</svg>
