<svg width="60" height="60" viewBox="0 0 60 60" fill="none" xmlns="http://www.w3.org/2000/svg">
<g clip-path="url(#clip0_1075_282)">
<path d="M51.3094 31.5784C51.1483 30.2797 51.1294 28.9809 51.262 27.7011C51.3568 26.7341 51.4042 25.7481 51.3758 24.7717C51.3473 23.5203 51.2147 22.2879 50.9967 21.0839C54.7686 19.2163 57.1663 15.3958 57.1663 11.1202C57.1663 4.98657 52.1813 0 46.0496 0C42.7326 0 39.6146 1.49787 37.5107 4.01959C34.6296 2.73029 31.4453 2.00032 28.1188 2.00032C25.0387 2.00032 22.1008 2.60705 19.4093 3.70675C17.2769 1.35566 14.3105 0 11.1167 0C4.98499 0 0 4.98657 0 11.1202C0 15.0356 2.00916 18.5811 5.30722 20.6004C4.99447 22.1172 4.83336 23.6815 4.83336 25.2836C4.83336 26.1463 4.88075 27.0185 4.97552 27.8717C5.20297 29.9005 4.99447 32.0525 4.3595 34.2613C4.04675 35.3421 3.89512 36.4418 3.89512 37.551C3.89512 46.7467 14.756 54.2171 28.1093 54.2171C29.7868 54.2171 31.4453 54.0939 33.0753 53.8663C35.7858 57.5826 40.1548 60 45.1019 60C53.3281 60 60 53.326 60 45.0972C60 39.0867 56.4366 33.9201 51.3189 31.569L51.3094 31.5784ZM46.0496 3.12846C50.4565 3.12846 54.0389 6.71196 54.0389 11.1202C54.0389 13.9643 52.5604 16.5239 50.1911 17.9554C48.4473 12.7698 44.9123 8.38995 40.3538 5.53642C41.8417 4.01959 43.8888 3.12846 46.0496 3.12846ZM3.12747 11.1202C3.12747 6.71196 6.70984 3.12846 11.1167 3.12846C13.1069 3.12846 14.9739 3.85843 16.4239 5.16669C11.7327 7.90646 8.07455 12.2389 6.20755 17.4151C4.28368 15.9172 3.12747 13.6325 3.12747 11.1297V11.1202ZM28.1093 51.0981C16.4808 51.0981 7.02259 45.0213 7.02259 37.5604C7.02259 36.7451 7.13631 35.9298 7.36377 35.1335C8.11246 32.5265 8.35887 29.9668 8.08403 27.5304C7.99874 26.791 7.96083 26.0325 7.96083 25.2836C7.96083 14.1729 16.9926 5.13825 28.0998 5.13825C38.9701 5.13825 48.0019 13.9738 48.2388 24.838C48.2578 25.6818 48.2199 26.5445 48.1346 27.3787C48.0303 28.4121 48.0114 29.4644 48.0682 30.5072C47.1016 30.3081 46.1065 30.2038 45.0924 30.2038C43.1306 30.2038 41.2541 30.5925 39.5388 31.2846C39.444 30.9717 39.3492 30.6684 39.226 30.365C42.0313 28.7628 43.8225 25.7671 43.8225 22.449C43.8225 17.4246 39.7378 13.3291 34.7054 13.3291C32.175 13.3291 29.7962 14.3814 28.0998 16.1637C26.4034 14.3719 24.0246 13.3291 21.4942 13.3291C16.4713 13.3291 12.3772 17.4151 12.3772 22.449C12.3772 25.7671 14.1684 28.7723 16.9736 30.365C16.4334 31.7491 16.1491 33.228 16.1491 34.7164C16.1491 41.3051 21.5037 46.6614 28.0903 46.6614H28.0998C28.8201 46.6614 29.5404 46.5856 30.2511 46.4623C30.3933 48.0265 30.7724 49.5244 31.3505 50.9085C30.2701 51.0223 29.1802 51.0886 28.0809 51.0886L28.1093 51.0981ZM30.3364 43.2391C29.6162 43.4287 28.877 43.5424 28.1188 43.5424C24.3848 43.5424 21.191 41.2008 19.9115 37.9112C22.6789 39.0014 25.6263 39.5608 28.5832 39.5608C29.5119 39.5608 30.4312 39.5039 31.36 39.3996C30.8577 40.6036 30.5165 41.8929 30.3554 43.2391H30.3364ZM33.445 35.8445C28.7158 37.0011 23.7214 36.4418 19.3713 34.2613C19.3524 34.2613 19.3429 34.2519 19.324 34.2424C19.3998 32.8772 19.7694 31.55 20.4423 30.365C20.6697 29.9573 20.7076 29.4739 20.5465 29.0378C20.3854 28.6017 20.0253 28.2604 19.5893 28.1087C17.1632 27.2839 15.5236 25.0087 15.5236 22.4396C15.5236 19.1405 18.2057 16.4481 21.5132 16.4481C23.6835 16.4481 25.6926 17.6331 26.7541 19.5386C27.0289 20.0316 27.5501 20.3444 28.1188 20.3444C28.6874 20.3444 29.2087 20.0316 29.4835 19.5386C30.5355 17.6331 32.5446 16.4481 34.7244 16.4481C38.0224 16.4481 40.7139 19.131 40.7139 22.4396C40.7139 25.0087 39.0839 27.2839 36.6482 28.1087C36.2028 28.2604 35.8522 28.6017 35.691 29.0378C35.5299 29.4739 35.5584 29.9573 35.7953 30.365C36.2312 31.1234 36.5345 31.9387 36.7241 32.7919C35.4825 33.6356 34.3927 34.669 33.4544 35.8445H33.445ZM45.1019 56.8715C38.6005 56.8715 33.3312 51.6006 33.3312 45.0972C33.3312 38.5938 38.6005 33.3228 45.1019 33.3228C51.6032 33.3228 56.8725 38.5938 56.8725 45.0972C56.8725 51.6006 51.6032 56.8715 45.1019 56.8715Z" fill="#EE1282"/>
<path d="M50.6256 40.9289L45.9052 38.0948C45.4123 37.8009 44.7867 37.8009 44.2938 38.0948L39.5734 40.9289C39.0995 41.2133 38.8152 41.7251 38.8152 42.2654V47.9336C38.8152 48.4834 39.0995 48.9952 39.5734 49.2701L44.2938 52.1043C44.7867 52.3981 45.4123 52.3981 45.9052 52.1043L50.6256 49.2701C51.0995 48.9858 51.3839 48.4739 51.3839 47.9336V42.2654C51.3839 41.7156 51.0995 41.2038 50.6256 40.9289ZM48.2559 47.0521L45.0995 48.9479L41.9431 47.0521V43.1564L45.0995 41.2606L48.2559 43.1564V47.0521Z" fill="#EE1282"/>
<path d="M21.4692 24.3128C22.5162 24.3128 23.365 23.4641 23.365 22.4171C23.365 21.3701 22.5162 20.5214 21.4692 20.5214C20.4222 20.5214 19.5735 21.3701 19.5735 22.4171C19.5735 23.4641 20.4222 24.3128 21.4692 24.3128Z" fill="#EE1282"/>
<path d="M34.7394 24.3128C35.7863 24.3128 36.6351 23.4641 36.6351 22.4171C36.6351 21.3701 35.7863 20.5214 34.7394 20.5214C33.6924 20.5214 32.8436 21.3701 32.8436 22.4171C32.8436 23.4641 33.6924 24.3128 34.7394 24.3128Z" fill="#EE1282"/>
</g>
<defs>
<clipPath id="clip0_1075_282">
<rect width="60" height="60" fill="white"/>
</clipPath>
</defs>
</svg>
