<svg width="35" height="35" fill="none" xmlns="http://www.w3.org/2000/svg"><path fill-rule="evenodd" clip-rule="evenodd" d="M24.95 21.145a4.19 4.19 0 0 0-3.006 1.282A4.441 4.441 0 0 0 20.7 25.52c0 1.16.447 2.274 1.244 3.094a4.19 4.19 0 0 0 3.006 1.281 4.19 4.19 0 0 0 3.005-1.28A4.44 4.44 0 0 0 29.2 25.52a4.44 4.44 0 0 0-1.245-3.093 4.19 4.19 0 0 0-3.005-1.282Zm0-2.187c-.838 0-1.667.17-2.44.5a6.367 6.367 0 0 0-2.068 1.422 6.579 6.579 0 0 0-1.382 2.13 6.73 6.73 0 0 0 0 5.022c.32.796.79 1.52 1.382 2.129a6.367 6.367 0 0 0 2.068 1.422c.773.33 1.602.5 2.44.5 1.69 0 3.312-.691 4.507-1.922a6.661 6.661 0 0 0 1.867-4.64c0-1.741-.671-3.41-1.867-4.64a6.284 6.284 0 0 0-4.508-1.923Z" fill="#fff"/><path d="M23.575 13.854c0-.58.223-1.136.622-1.546.398-.41.939-.641 1.503-.641.563 0 1.104.23 1.502.64.399.41.622.967.622 1.547a2.22 2.22 0 0 1-.622 1.547c-.398.41-.939.641-1.503.641-.563 0-1.104-.23-1.502-.64a2.22 2.22 0 0 1-.622-1.547Z" fill="#fff"/><path fill-rule="evenodd" clip-rule="evenodd" d="M4.019 15.943a1.086 1.086 0 0 1-.524-.64 1.123 1.123 0 0 1 .07-.835l2.382-4.723c.158-.314.379-.591.647-.813.269-.222.579-.384.911-.476a2.41 2.41 0 0 1 1.976.315l3.05 2.005a.349.349 0 0 0 .506-.14l1.667-3.306c.159-.315.38-.592.648-.814a2.41 2.41 0 0 1 2.887-.162l3.05 2.006a.348.348 0 0 0 .506-.139l2.38-4.722c.13-.258.353-.452.622-.54a1.034 1.034 0 0 1 .81.072c.124.066.234.156.324.266a1.103 1.103 0 0 1 .246.798 1.118 1.118 0 0 1-.115.41L23.68 9.232a2.537 2.537 0 0 1-.647.813 2.453 2.453 0 0 1-.911.475 2.412 2.412 0 0 1-1.976-.314L17.096 8.2a.348.348 0 0 0-.506.138l-1.667 3.308a2.54 2.54 0 0 1-.648.813 2.453 2.453 0 0 1-.911.475 2.412 2.412 0 0 1-1.976-.314l-3.05-2.007a.349.349 0 0 0-.506.139l-2.38 4.723a1.056 1.056 0 0 1-1.035.586 1.042 1.042 0 0 1-.398-.12Zm14.82-.966a1.1 1.1 0 0 1 .282.486c.051.185.054.38.01.566l-3.434 14.149a1.103 1.103 0 0 1-.266.495 1.06 1.06 0 0 1-.472.292 1.034 1.034 0 0 1-1.03-.265L3.736 20.566a1.125 1.125 0 0 1-.025-1.546 1.06 1.06 0 0 1 .47-.292l13.625-4.016a1.033 1.033 0 0 1 1.031.265ZM14.08 27.811l2.542-10.474-10.087 2.972 7.545 7.502Z" fill="#fff"/></svg>