<svg width="36" height="36" fill="none" xmlns="http://www.w3.org/2000/svg"><path d="M9.886 2.991a6.884 6.884 0 0 0-4.92 2.081 7.182 7.182 0 0 0-2.037 5.024c0 1.884.733 3.691 2.038 5.024a6.884 6.884 0 0 0 4.919 2.08h5.858c.291 0 .57-.118.776-.328a1.13 1.13 0 0 0 .322-.793v-5.983a7.182 7.182 0 0 0-2.037-5.024 6.884 6.884 0 0 0-4.92-2.08Zm-4.76 7.105A4.91 4.91 0 0 1 6.52 6.659a4.71 4.71 0 0 1 3.366-1.424 4.71 4.71 0 0 1 3.365 1.424 4.914 4.914 0 0 1 1.394 3.437v4.861h-4.76a4.71 4.71 0 0 1-3.365-1.424 4.914 4.914 0 0 1-1.394-3.437Zm4.76 22.81a6.884 6.884 0 0 1-4.92-2.081A7.182 7.182 0 0 1 2.93 25.8c0-1.884.733-3.691 2.038-5.024a6.884 6.884 0 0 1 4.919-2.08h5.858c.291 0 .57.117.776.328.207.21.322.496.322.793V25.8a7.23 7.23 0 0 1-.53 2.719 7.116 7.116 0 0 1-1.507 2.305 6.949 6.949 0 0 1-2.257 1.54 6.832 6.832 0 0 1-2.662.54ZM5.126 25.8a4.91 4.91 0 0 0 1.394 3.437 4.71 4.71 0 0 0 3.366 1.424 4.71 4.71 0 0 0 3.365-1.424 4.914 4.914 0 0 0 1.394-3.437v-4.86h-4.76a4.71 4.71 0 0 0-3.365 1.424A4.914 4.914 0 0 0 5.126 25.8ZM32.22 10.096a7.182 7.182 0 0 0-2.038-5.024 6.884 6.884 0 0 0-4.919-2.08 6.884 6.884 0 0 0-4.919 2.08 7.182 7.182 0 0 0-2.037 5.024v5.983c0 .62.492 1.122 1.098 1.122h5.858a6.83 6.83 0 0 0 2.662-.541 6.947 6.947 0 0 0 2.257-1.54 7.116 7.116 0 0 0 1.508-2.305 7.23 7.23 0 0 0 .53-2.719Zm-6.957-4.861a4.71 4.71 0 0 1 3.366 1.424 4.914 4.914 0 0 1 1.394 3.437 4.91 4.91 0 0 1-1.394 3.437 4.71 4.71 0 0 1-3.366 1.424h-4.76v-4.861a4.91 4.91 0 0 1 1.395-3.437 4.71 4.71 0 0 1 3.365-1.424Zm0 27.67a6.884 6.884 0 0 0 4.92-2.08A7.182 7.182 0 0 0 32.22 25.8a7.182 7.182 0 0 0-2.038-5.024 6.884 6.884 0 0 0-4.919-2.08h-5.858c-.291 0-.57.117-.777.328-.206.21-.321.496-.321.793V25.8c0 .933.18 1.857.53 2.719a7.107 7.107 0 0 0 1.507 2.305 6.884 6.884 0 0 0 4.92 2.08Zm4.76-7.104a4.91 4.91 0 0 1-1.394 3.437 4.71 4.71 0 0 1-3.366 1.424 4.71 4.71 0 0 1-3.365-1.424 4.914 4.914 0 0 1-1.394-3.437V20.94h4.76a4.71 4.71 0 0 1 3.365 1.424 4.914 4.914 0 0 1 1.394 3.437Z" fill="#fff"/></svg>