<svg width="34" height="34" fill="none" xmlns="http://www.w3.org/2000/svg"><path d="M9.917 17H17v7.083M4.264 17H4.25m7.098 7.083h-.015m5.681 5.667H17M29.764 17h-.014m-25.5 7.083h2.125M21.958 17h2.834M4.25 29.75h7.083M17 2.833v8.5m7.933 18.417h2.55c.794 0 1.19 0 1.494-.155.266-.136.483-.352.619-.619.154-.303.154-.7.154-1.493v-2.55c0-.793 0-1.19-.154-1.493a1.417 1.417 0 0 0-.62-.62c-.303-.154-.7-.154-1.493-.154h-2.55c-.793 0-1.19 0-1.493.155a1.417 1.417 0 0 0-.619.619c-.154.303-.154.7-.154 1.493v2.55c0 .793 0 1.19.154 1.493.136.267.353.483.62.62.302.154.699.154 1.492.154Zm0-18.417h2.55c.794 0 1.19 0 1.494-.154a1.42 1.42 0 0 0 .619-.62c.154-.302.154-.7.154-1.493v-2.55c0-.793 0-1.19-.154-1.493a1.416 1.416 0 0 0-.62-.619c-.303-.154-.7-.154-1.493-.154h-2.55c-.793 0-1.19 0-1.493.154a1.416 1.416 0 0 0-.619.62c-.154.302-.154.699-.154 1.492v2.55c0 .794 0 1.19.154 1.493.136.267.353.484.62.62.302.154.699.154 1.492.154Zm-18.416 0h2.55c.793 0 1.19 0 1.493-.154a1.42 1.42 0 0 0 .619-.62c.154-.302.154-.7.154-1.493v-2.55c0-.793 0-1.19-.154-1.493a1.416 1.416 0 0 0-.62-.619c-.302-.154-.699-.154-1.492-.154h-2.55c-.794 0-1.19 0-1.493.154a1.417 1.417 0 0 0-.62.62c-.154.302-.154.699-.154 1.492v2.55c0 .794 0 1.19.154 1.493.136.267.353.484.62.62.303.154.7.154 1.493.154Z" stroke="#fff" stroke-width="2.5" stroke-linecap="round" stroke-linejoin="round"/></svg>