<svg width="31" height="30" fill="none" xmlns="http://www.w3.org/2000/svg"><path fill-rule="evenodd" clip-rule="evenodd" d="M16.938 1.364c0-.753.61-1.364 1.364-1.364h2.727a1.364 1.364 0 0 1 0 2.727h-2.727c-.753 0-1.364-.61-1.364-1.363Zm-2.045-.015a1.364 1.364 0 0 1-1.346 1.382c-.946.013-1.191.08-1.319.145-.256.13-.465.34-.596.596-.065.127-.132.373-.145 1.32a1.364 1.364 0 1 1-2.727-.038c.012-.895.052-1.754.442-2.52A4.091 4.091 0 0 1 10.99.446c.766-.39 1.626-.43 2.52-.442a1.364 1.364 0 0 1 1.383 1.345Zm9.545 0A1.364 1.364 0 0 1 25.82.004c.895.012 1.755.051 2.52.442a4.09 4.09 0 0 1 1.789 1.788c.39.766.43 1.625.442 2.52a1.364 1.364 0 0 1-2.727.037c-.013-.946-.08-1.192-.145-1.32a1.363 1.363 0 0 0-.596-.595c-.128-.065-.373-.132-1.32-.145a1.364 1.364 0 0 1-1.345-1.382Zm4.773 6.833c.753 0 1.364.61 1.364 1.363v2.728a1.364 1.364 0 1 1-2.728 0V9.545c0-.753.61-1.363 1.364-1.363Zm-22.962 0h10.469c.719 0 1.339 0 1.85.041.539.045 1.075.142 1.591.405a4.09 4.09 0 0 1 1.788 1.787c.263.517.36 1.053.404 1.592.042.51.042 1.13.042 1.85v10.468c0 .72 0 1.34-.042 1.85-.044.54-.141 1.075-.404 1.591a4.09 4.09 0 0 1-1.788 1.788c-.516.263-1.052.36-1.591.404-.511.042-1.131.042-1.85.042H6.249c-.719 0-1.339 0-1.85-.042-.539-.044-1.075-.141-1.59-.404a4.09 4.09 0 0 1-1.789-1.788c-.262-.516-.36-1.052-.404-1.591-.042-.51-.041-1.13-.041-1.85V13.857c0-.72 0-1.34.041-1.85.044-.54.142-1.075.404-1.591a4.09 4.09 0 0 1 1.788-1.788c.516-.263 1.052-.36 1.591-.405.511-.041 1.131-.041 1.85-.041Zm-1.627 2.76c-.37.03-.508.081-.576.116-.256.13-.465.34-.596.596-.034.067-.085.204-.116.575-.031.386-.032.894-.032 1.68v10.364c0 .786 0 1.294.032 1.68.03.37.082.508.116.575.131.257.34.465.596.596.068.035.205.086.576.116.386.032.894.033 1.68.033h10.363c.787 0 1.294-.001 1.68-.033.371-.03.509-.081.576-.116.256-.13.465-.34.596-.596.034-.067.085-.205.116-.575.031-.386.032-.894.032-1.68V13.909c0-.786 0-1.294-.032-1.68-.03-.37-.082-.508-.116-.575a1.364 1.364 0 0 0-.596-.596c-.067-.035-.205-.086-.575-.116-.387-.032-.894-.033-1.68-.033H6.301c-.786 0-1.294.001-1.68.033Zm24.604 4.74c.753.01 1.355.629 1.345 1.382-.013.895-.052 1.754-.442 2.52a4.09 4.09 0 0 1-1.788 1.788c-.766.39-1.626.43-2.52.442a1.364 1.364 0 1 1-.038-2.727c.947-.013 1.192-.08 1.32-.145.256-.13.465-.34.596-.596.064-.127.132-.373.145-1.319a1.364 1.364 0 0 1 1.382-1.345Z" fill="#fff"/></svg>