<svg width="34" height="34" fill="none" xmlns="http://www.w3.org/2000/svg"><path d="M17 21.25 12.75 17M17 21.25a31.662 31.662 0 0 0 5.666-2.833M17 21.25v7.083s4.292-.779 5.666-2.833c1.53-2.295 0-7.083 0-7.083M12.75 17a31.168 31.168 0 0 1 2.833-5.596 18.246 18.246 0 0 1 15.583-8.57c0 3.853-1.105 10.624-8.5 15.583M12.75 17H5.667s.779-4.293 2.833-5.667c2.295-1.53 7.083 0 7.083 0M6.375 23.375c-2.125 1.785-2.833 7.083-2.833 7.083s5.298-.708 7.083-2.833c1.006-1.19.992-3.017-.128-4.122a3.089 3.089 0 0 0-4.122-.128Z" stroke="#fff" stroke-width="2.5" stroke-linecap="round" stroke-linejoin="round"/></svg>