<svg width="28" height="28" fill="none" xmlns="http://www.w3.org/2000/svg"><path fill-rule="evenodd" clip-rule="evenodd" d="M6.048.897h15.053c.656 0 1.222 0 1.69.032.494.034.987.108 1.475.31a4.487 4.487 0 0 1 2.428 2.428c.202.487.276.98.31 1.474.032.469.032 1.035.032 1.69v.049a1.496 1.496 0 0 1-2.992 0c0-.718 0-1.18-.025-1.535-.023-.341-.063-.471-.088-.533a1.496 1.496 0 0 0-.81-.81c-.062-.026-.192-.065-.533-.089-.355-.024-.818-.025-1.535-.025H15.07v20.94h2.992a1.496 1.496 0 0 1 0 2.992H9.087a1.496 1.496 0 1 1 0-2.992h2.992V3.888H6.096c-.717 0-1.18.001-1.535.025-.341.024-.47.063-.533.09a1.496 1.496 0 0 0-.81.809c-.025.062-.065.192-.088.533-.025.354-.025.817-.025 1.535a1.496 1.496 0 1 1-2.992 0v-.048c0-.656 0-1.222.032-1.69.034-.494.108-.988.31-1.475a4.487 4.487 0 0 1 2.428-2.428c.488-.202.981-.276 1.474-.31A26.656 26.656 0 0 1 6.048.897Z" fill="#fff"/></svg>